/* XPM */
static char * HexenII_70x70_xpm[] = {
"70 70 338 2",
"  	c None",
". 	c #840000",
"+ 	c #420000",
"@ 	c #400000",
"# 	c #C20000",
"$ 	c #350000",
"% 	c #1A0000",
"& 	c #460000",
"* 	c #C40000",
"= 	c #AB0000",
"- 	c #E40000",
"; 	c #9A0000",
"> 	c #4D0000",
", 	c #000000",
"' 	c #550000",
") 	c #FB0000",
"! 	c #BF0000",
"~ 	c #190000",
"{ 	c #E70000",
"] 	c #4F0000",
"^ 	c #020000",
"/ 	c #290000",
"( 	c #300000",
"_ 	c #6D0000",
": 	c #F50000",
"< 	c #360000",
"[ 	c #410000",
"} 	c #FA0000",
"| 	c #3F0000",
"1 	c #7C0000",
"2 	c #770000",
"3 	c #480000",
"4 	c #DA0000",
"5 	c #3E0000",
"6 	c #120000",
"7 	c #900000",
"8 	c #850000",
"9 	c #210000",
"0 	c #720000",
"a 	c #CC0000",
"b 	c #180000",
"c 	c #930000",
"d 	c #FF0000",
"e 	c #530000",
"f 	c #540000",
"g 	c #D70000",
"h 	c #270000",
"i 	c #1D0000",
"j 	c #C10000",
"k 	c #440000",
"l 	c #2C0000",
"m 	c #D80000",
"n 	c #4B0000",
"o 	c #A10000",
"p 	c #8F0000",
"q 	c #0B0000",
"r 	c #740000",
"s 	c #D00000",
"t 	c #1B0000",
"u 	c #340000",
"v 	c #220000",
"w 	c #6B0000",
"x 	c #430000",
"y 	c #9D0000",
"z 	c #1F0000",
"A 	c #6E0000",
"B 	c #6A0000",
"C 	c #660000",
"D 	c #650000",
"E 	c #820000",
"F 	c #BC0000",
"G 	c #890000",
"H 	c #BA0000",
"I 	c #C00000",
"J 	c #9B0000",
"K 	c #E90000",
"L 	c #2F0000",
"M 	c #040000",
"N 	c #7A0000",
"O 	c #970000",
"P 	c #E00000",
"Q 	c #380000",
"R 	c #390000",
"S 	c #ED0000",
"T 	c #3B0000",
"U 	c #C90000",
"V 	c #2D0000",
"W 	c #580000",
"X 	c #DF0000",
"Y 	c #A40000",
"Z 	c #C60000",
"` 	c #8D0000",
" .	c #010000",
"..	c #E10000",
"+.	c #7D0000",
"@.	c #130000",
"#.	c #510000",
"$.	c #FD0000",
"%.	c #F80000",
"&.	c #9E0000",
"*.	c #5B0000",
"=.	c #940000",
"-.	c #830000",
";.	c #640000",
">.	c #F70000",
",.	c #2E0000",
"'.	c #B40000",
").	c #EB0000",
"!.	c #320000",
"~.	c #810000",
"{.	c #D10000",
"].	c #E50000",
"^.	c #FE0000",
"/.	c #690000",
"(.	c #950000",
"_.	c #070000",
":.	c #A20000",
"<.	c #730000",
"[.	c #310000",
"}.	c #090000",
"|.	c #3C0000",
"1.	c #D50000",
"2.	c #AD0000",
"3.	c #260000",
"4.	c #C30000",
"5.	c #CB0000",
"6.	c #E80000",
"7.	c #F90000",
"8.	c #490000",
"9.	c #DC0000",
"0.	c #330000",
"a.	c #B90000",
"b.	c #610000",
"c.	c #620000",
"d.	c #F20000",
"e.	c #C70000",
"f.	c #230000",
"g.	c #4A0000",
"h.	c #AF0000",
"i.	c #570000",
"j.	c #F40000",
"k.	c #E60000",
"l.	c #370000",
"m.	c #880000",
"n.	c #A90000",
"o.	c #630000",
"p.	c #EF0000",
"q.	c #5D0000",
"r.	c #AA0000",
"s.	c #0A0000",
"t.	c #030000",
"u.	c #8C0000",
"v.	c #BE0000",
"w.	c #DD0000",
"x.	c #BB0000",
"y.	c #1E0000",
"z.	c #B80000",
"A.	c #B50000",
"B.	c #2B0000",
"C.	c #DB0000",
"D.	c #910000",
"E.	c #780000",
"F.	c #CA0000",
"G.	c #520000",
"H.	c #E20000",
"I.	c #150400",
"J.	c #710000",
"K.	c #CE0000",
"L.	c #7F0000",
"M.	c #960000",
"N.	c #E30000",
"O.	c #0B0200",
"P.	c #5C1200",
"Q.	c #4B0F00",
"R.	c #C80000",
"S.	c #4C0E00",
"T.	c #140400",
"U.	c #E52C00",
"V.	c #490E00",
"W.	c #D90000",
"X.	c #250000",
"Y.	c #8F1C00",
"Z.	c #1E0500",
"`.	c #861A00",
" +	c #FF3200",
".+	c #460E00",
"++	c #1C0000",
"@+	c #200000",
"#+	c #981E00",
"$+	c #6E1500",
"%+	c #CD2800",
"&+	c #450D00",
"*+	c #B60000",
"=+	c #0E0000",
"-+	c #9D1F00",
";+	c #C02500",
">+	c #1F0600",
",+	c #430D00",
"'+	c #670000",
")+	c #5F0000",
"!+	c #160000",
"~+	c #A22000",
"{+	c #2E0900",
"]+	c #360B00",
"^+	c #400C00",
"/+	c #9C0000",
"(+	c #080000",
"_+	c #A82100",
":+	c #661400",
"<+	c #480E00",
"[+	c #3E0C00",
"}+	c #AE2200",
"|+	c #551100",
"1+	c #571100",
"2+	c #3C0B00",
"3+	c #8E0000",
"4+	c #DE0000",
"5+	c #AC0000",
"6+	c #B42300",
"7+	c #3F0C00",
"8+	c #641300",
"9+	c #3A0B00",
"0+	c #AE0000",
"a+	c #CD0000",
"b+	c #B92500",
"c+	c #280800",
"d+	c #631300",
"e+	c #380B00",
"f+	c #790000",
"g+	c #060000",
"h+	c #BD2600",
"i+	c #130400",
"j+	c #5E1200",
"k+	c #EA0000",
"l+	c #A50000",
"m+	c #D60000",
"n+	c #9F0000",
"o+	c #4E0000",
"p+	c #C32700",
"q+	c #E72D00",
"r+	c #581200",
"s+	c #340B00",
"t+	c #3D0000",
"u+	c #EC0000",
"v+	c #3A0000",
"w+	c #2A0000",
"x+	c #EE0000",
"y+	c #C52700",
"z+	c #C82700",
"A+	c #531000",
"B+	c #310A00",
"C+	c #8A0000",
"D+	c #F10000",
"E+	c #FC0000",
"F+	c #F00000",
"G+	c #C12700",
"H+	c #B22200",
"I+	c #4D0F00",
"J+	c #1A0500",
"K+	c #A70000",
"L+	c #A60000",
"M+	c #BD2500",
"N+	c #9A1E00",
"O+	c #470E00",
"P+	c #D62A00",
"Q+	c #450000",
"R+	c #240000",
"S+	c #B82400",
"T+	c #841900",
"U+	c #420D00",
"V+	c #A92100",
"W+	c #4C0000",
"X+	c #F60000",
"Y+	c #D30000",
"Z+	c #B22300",
"`+	c #6D1500",
" @	c #3B0B00",
".@	c #7F1900",
"+@	c #110000",
"@@	c #280000",
"#@	c #B00000",
"$@	c #BD0000",
"%@	c #140000",
"&@	c #AF2200",
"*@	c #581100",
"=@	c #370A00",
"-@	c #561100",
";@	c #590000",
">@	c #680000",
",@	c #AA2100",
"'@	c #410C00",
")@	c #320A00",
"!@	c #170000",
"~@	c #6F0000",
"{@	c #100000",
"]@	c #A80000",
"^@	c #A52000",
"/@	c #2A0800",
"(@	c #2B0900",
"_@	c #F12F00",
":@	c #070200",
"<@	c #A00000",
"[@	c #0D0000",
"}@	c #050000",
"|@	c #800000",
"1@	c #0F0000",
"2@	c #A01F00",
"3@	c #270800",
"4@	c #5E0000",
"5@	c #750000",
"6@	c #7B1900",
"7@	c #210600",
"8@	c #961D00",
"9@	c #D40000",
"0@	c #470000",
"a@	c #470D00",
"b@	c #1C0500",
"c@	c #5A0000",
"d@	c #180500",
"e@	c #170400",
"f@	c #F30000",
"g@	c #600000",
"h@	c #120300",
"i@	c #180400",
"j@	c #6C0000",
"k@	c #B10000",
"l@	c #990000",
"m@	c #040100",
"n@	c #CF0000",
"o@	c #0C0000",
"p@	c #8B0000",
"q@	c #560000",
"r@	c #7E0000",
"s@	c #B20000",
"t@	c #C50000",
"u@	c #7B0000",
"v@	c #B30000",
"w@	c #5C0000",
"                                                                                                                                            ",
"                                                                                                                                            ",
"                                    . +                                                                                                     ",
"                                    @ # $ % +                                                                                               ",
"                                      & * = - ; > ,                                                                                         ",
"                                        ' ) ! ~ { ] ^                                                                             /         ",
"                                      (   _ : < [ } | ,                                                                         1 2         ",
"                                    3 4 5 6 7 8 9 0 a b ,                                                                     c d e ,       ",
"                                  f { d g h i j k l m n ,                                                                   o d p q ,       ",
"                              r s d d d d = t u a v w x ,                                                                 y d # z ,         ",
"                            3 A B C D C E F F G d H I < ,                                                               J d K L , ,         ",
"                                          M N d d d d L ,                                                             O d P Q , ,           ",
"                                            R S d d d T ,                                                         k = d U V , ,             ",
"                                              _ d d d W , ,                                                     k X d Y 9 , ,               ",
"                                                Z d d `  .,                                                   & ..d +.@., ,                 ",
"                                                #.$.d %.L ,                                                 ] { d d &.*.l ,                 ",
"                                          5       =.d d -. .,                                             ;.>.d d d d S ,.,                 ",
"                                          &.'.b   R ).d %.!.,                                           ~.d {.].d ^.= u , ,                 ",
"                                            '.C ,   /.d d (._.,                                   v v :.d * a %.<.[.}.,                     ",
"                                            |.1.k , t 2.d ^.[ ,                               Q 3.i 4.d 5.6.7.#.M ,                         ",
"                                              8.9.0., u K d a.6 ,                           b.c.h ..d 5.d d.x , ,                           ",
"                                                b.e.f., g.} d e ,                       k h.i.R j.d.5.6.k.l., ,                             ",
"                                                  m.n.i , o.d 9.z ,                   <.p.@ q.^.X 5.d 9.,., ,                               ",
"                                                    :.r.i s.` d 0 t.              + ! d.$ u.d v.X d w.l , ,                                 ",
"                                                      x.= y.0.d ) + ,           n w.K 0.z.d.v.d d X V , , , ,                   ,           ",
"                                                      5 s A.u p.p.{ B.,       *.d.C.|.C.X 5.d d P ,., , , , , ,                 , ,         ",
"                                                        < D.d p.p.d H % ,   E.$.F.G.d.9.{.d d H.L , ,   , , , ,               , I.,         ",
"                                                            J.d K.K.d L.z M.d H r $.5.v.].d N.( , ,     , O., , ,           , P.Q.,         ",
"                                                              o d 5.d.d X d A.y d R.v.d d C.L , ,       , S., , ,           T.U.V.,         ",
"                                                              b.d d.5.d d d 7.d d.W.X d F X., ,         , Y.Z., ,         , `. +.+,         ",
"                                                              3 ^.d X X d d d X 5.d d J ++, @+          , #+$+, ,         , %+ +&+,         ",
"                                                                *+d d v.d d d X d d N @.=+C '           , -+;+, , ,       >+ + +,+,         ",
"                                                                '+d d X X X X d d )+}.f.&.c !+,         , ~+ +{+, ,       ]+ + +^+,         ",
"                                                                x d d d.Z K.d d /+(+l.1.7 t ,           , _+ +:+, ,       <+ + +[+,         ",
"                                                                *.d d 5.X v.d d !.f.{ E.6 ,             , }+ +|+, ,       1+ + +2+,         ",
"                                                            3+4+S '+. ^.d X X d J.5+)+(+,               , 6+ +7+, ,       8+ + +9+,         ",
"                                                        5 0+d a+,.% 2 ^.d X X d d q.M ,                 , b+ +c+, ,       d+ + +e+,         ",
"                                                      x K.d v.h q h.d 6.d d 5.d.f+g+,                   , h+ +i+, ,       j+ + +]+,         ",
"                                                    e k+d l+@+, & d m+f.n+d X X o+, ,                   , p+q+ ., ,       r+ + +s+,         ",
"                                                  A ) $.0 @., t+u+: v+, w+x+d.5.n+i &                   , y+z+, , ,       A+ + +B+,         ",
"                                                C+d D+g.M , + p.E+' , }.W F+d d d {.m.                  , G+H+, , ,       I+ + +J+,         ",
"                                              K+d w.< , , & D+j.> t.v ` ! 3.L+d d p.z ,                 , M+N+, ,         O+ +P+, ,         ",
"                                          Q+# d v.w+, , n j.k.5 , h 4.m+( , R+* d d ' ,                 , S+T+, ,         U+ +V+, ,         ",
"                                        W+C.d J y., , ] X+Y+[., f.H F.( , ,   T a d ` ,                 , Z+`+, ,          @ +.@, ,         ",
"                                      1 %.d E.+@, ^ ' %.a.@@, v #@2.@@, ,       Q $@H.%@,               , &@*@, ,         =@ +-@, ,         ",
"                                  k 4 d 7.;@_., q >@E+n+y., y.l+u.++,             l.>.& ,               , ,@'@, ,         )@ +{+, ,         ",
"                                T { d D+x , , !@-.d G %@, l n.~@{@,                 ]@X h ,             , ^@/@, ,         (@_@:@,           ",
"                                  u.p.| , , X.<@^.0 [@, v+R.e }@,                   |@d o 1@,           , 2@T., ,         3@;+, ,           ",
"                                > 4+| , , ,.a.) 4@}@t.] 1.| , ,                     5@d d C  .          , 6@ .,           7@8@, ,           ",
"                              G.4 5 , , Q Y+j.o+ .+@_ 9@u , ,                       0@^.&.} Q+,         , a@, ,           b@`+, ,           ",
"                            c@C.v+, , + k.k+[ , @+(.* V , ,                           m+&.~@k+[.,       , d@, ,           e@,+, ,           ",
"                          o.C.l., , 8.f@Y+< , L v.#@h ,                               g@$.++z.Z 9 ,     , , , ,           h@i@,             ",
"                        j@1.0., , g.j.k@/ , | X ; ++,                                   5+5.b ).l@{@,   , , , ,           m@, ,             ",
"                      2 n@( q , 8.: u.% g+i.: . @.,                                     x p.n 8.d C ,   , , ,             , , ,             ",
"                    . R.V y.2 [ D+C [@@.f+$.~@o@,                                         | h }.p@: l., , , ,             , , ,             ",
"                  7 v.w+, W $.).3  .R+o d.q@g+,                                                 ( g A.%@, ,               , ,               ",
"                /+A.@@, ++5.x+| , 0.R.# $ , ,                                                     > ) c., ,               , ,               ",
"              K+= R+, i p@k+|., k k.|@y.,                                                           r@d.0.,                                 ",
"            s@:.9 , V s@- Q t.*.C.> M ,                                                               t@2.{@,                               ",
"          x.= z t.k w.j !., |.; ( , ,                                                                 c@d 3 ,                               ",
"        F a.f.X.u@) p@i ,   h                                                                           U W+,                               ",
"      ! e.y.q@- f@c@}.,                                                                                 3 l.,                               ",
"    3 ;.++v@d /+[., ,                                                                                                                       ",
"      n ..1.0@}.,                                                                                                                           ",
"    C >.|@i , ,                                                                                                                             ",
"  w@F+q@_.,                                                                                                                                 ",
"| 5+5 , ,                                                                                                                                   ",
"                                                                                                                                            ",
"                                                                                                                                            ",
"                                                                                                                                            "};
