/* XPM */
static char * HexenII_64x64_xpm[] = {
"64 64 257 2",
"  	c None",
". 	c #47704C",
"+ 	c #000000",
"@ 	c #000000",
"# 	c #000000",
"$ 	c #000000",
"% 	c #000000",
"& 	c #000000",
"* 	c #000000",
"= 	c #000000",
"- 	c #000000",
"; 	c #000000",
"> 	c #000000",
", 	c #000000",
"' 	c #000000",
") 	c #000000",
"! 	c #000000",
"~ 	c #000000",
"{ 	c #000000",
"] 	c #000000",
"^ 	c #030202",
"/ 	c #000000",
"( 	c #010000",
"_ 	c #010000",
": 	c #020202",
"< 	c #010101",
"[ 	c #000000",
"} 	c #000000",
"| 	c #000000",
"1 	c #000000",
"2 	c #000000",
"3 	c #020202",
"4 	c #000000",
"5 	c #000000",
"6 	c #000000",
"7 	c #000000",
"8 	c #000000",
"9 	c #020202",
"0 	c #010101",
"a 	c #010000",
"b 	c #6F6542",
"c 	c #232323",
"d 	c #323232",
"e 	c #363636",
"f 	c #242423",
"g 	c #2C2C2C",
"h 	c #41403E",
"i 	c #C4B689",
"j 	c #A79D60",
"k 	c #232323",
"l 	c #1E1D1B",
"m 	c #141311",
"n 	c #434343",
"o 	c #323230",
"p 	c #363636",
"q 	c #67602F",
"r 	c #89834E",
"s 	c #999455",
"t 	c #000000",
"u 	c #070000",
"v 	c #0C0404",
"w 	c #090101",
"x 	c #120A0A",
"y 	c #0E0606",
"z 	c #1B1313",
"A 	c #100808",
"B 	c #040000",
"C 	c #130C0C",
"D 	c #1D1515",
"E 	c #060606",
"F 	c #020000",
"G 	c #454545",
"H 	c #1F1717",
"I 	c #171010",
"J 	c #121212",
"K 	c #0B0B0B",
"L 	c #211919",
"M 	c #170E0E",
"N 	c #0D0000",
"O 	c #110101",
"P 	c #2B2B2B",
"Q 	c #0F0E0E",
"R 	c #181111",
"S 	c #140705",
"T 	c #1D1D1D",
"U 	c #1D0F0D",
"V 	c #140E0E",
"W 	c #2B2222",
"X 	c #2E2626",
"Y 	c #393131",
"Z 	c #271E1E",
"` 	c #4D4D4D",
" .	c #252525",
"..	c #281816",
"+.	c #212121",
"@.	c #381B16",
"#.	c #231311",
"$.	c #161616",
"%.	c #180A09",
"&.	c #404040",
"*.	c #3F3F3F",
"=.	c #28110E",
"-.	c #1F1312",
";.	c #363636",
">.	c #393939",
",.	c #322A29",
"'.	c #333333",
").	c #1B0402",
"!.	c #2D1310",
"~.	c #454141",
"{.	c #150201",
"].	c #2F2F2F",
"^.	c #191919",
"/.	c #241B1B",
"(.	c #230D09",
"_.	c #331411",
":.	c #4A4A4A",
"<.	c #301F1C",
"[.	c #1D0B06",
"}.	c #3F1F19",
"|.	c #362D2D",
"1.	c #2F1916",
"2.	c #3D3535",
"3.	c #290A05",
"4.	c #392421",
"5.	c #39130E",
"6.	c #282828",
"7.	c #220502",
"8.	c #0C0606",
"9.	c #300E08",
"0.	c #565656",
"a.	c #F9F568",
"b.	c #4D4545",
"c.	c #5D5D5D",
"d.	c #656463",
"e.	c #423A3A",
"f.	c #411712",
"g.	c #3C3C3C",
"h.	c #4E2B25",
"i.	c #48211B",
"j.	c #55431F",
"k.	c #6E6E6E",
"l.	c #3F2D29",
"m.	c #372307",
"n.	c #5B2B24",
"o.	c #442621",
"p.	c #554C4B",
"q.	c #634716",
"r.	c #4A1B15",
"s.	c #49322E",
"t.	c #53231D",
"u.	c #515151",
"v.	c #442C0C",
"w.	c #42331A",
"x.	c #2F2515",
"y.	c #755D29",
"z.	c #57332D",
"A.	c #493D20",
"B.	c #696969",
"C.	c #523813",
"D.	c #271A07",
"E.	c #675423",
"F.	c #673029",
"G.	c #372C18",
"H.	c #6A5A32",
"I.	c #F9F475",
"J.	c #77382E",
"K.	c #693A33",
"L.	c #916F1E",
"M.	c #836622",
"N.	c #8A7B42",
"O.	c #7D7042",
"P.	c #594D31",
"Q.	c #5D4E25",
"R.	c #727272",
"S.	c #4D3D32",
"T.	c #FFFFFC",
"U.	c #947836",
"V.	c #886E31",
"W.	c #A17819",
"X.	c #67281E",
"Y.	c #78463F",
"Z.	c #F9C438",
"`.	c #ECB92E",
" +	c #9C8245",
".+	c #9B8B55",
"++	c #645742",
"@+	c #A39566",
"#+	c #E9BD43",
"$+	c #A17B2D",
"%+	c #755618",
"&+	c #776A2F",
"*+	c #E8DB80",
"=+	c #D9CE6A",
"-+	c #C4B276",
";+	c #CC9B27",
">+	c #5A3E38",
",+	c #AB8A3C",
"'+	c #FFFE95",
")+	c #DDCD7F",
"!+	c #FFFFE5",
"~+	c #B8A876",
"{+	c #7D673B",
"]+	c #D1BE79",
"^+	c #F2EC74",
"/+	c #BB9025",
"(+	c #8E8157",
"_+	c #895147",
":+	c #B08522",
"<+	c #C8A23E",
"[+	c #E0AD25",
"}+	c #DFD09E",
"|+	c #DAB23F",
"1+	c #807555",
"2+	c #969044",
"3+	c #68453E",
"4+	c #561A13",
"5+	c #F3E589",
"6+	c #D4A635",
"7+	c #A4872E",
"8+	c #EFE0AC",
"9+	c #AE9E70",
"0+	c #A68F56",
"a+	c #B89A34",
"b+	c #E4DA67",
"c+	c #C5BB61",
"d+	c #B99846",
"e+	c #853F32",
"f+	c #F9D046",
"g+	c #FBF08D",
"h+	c #948967",
"i+	c #D1C090",
"j+	c #CAC0A9",
"k+	c #B8AF4D",
"l+	c #FDF7D0",
"m+	c #954536",
"n+	c #B3A765",
"o+	c #A49C4F",
"p+	c #EAE471",
"q+	c #BCB264",
"r+	c #FFEE38",
"s+	c #D0C558",
"t+	c #EFE65D",
"u+	c #AB5542",
"v+	c #F7D22B",
"w+	c #C5A75E",
"x+	c #D6B157",
"y+	c #FCF1BA",
"z+	c #E9E1C4",
"A+	c #B19F56",
"B+	c #A0927D",
"C+	c #B0A890",
"D+	c #9A6359",
"E+	c #B89861",
"F+	c #AB6C60",
"G+	c #C87B66",
"H+	c #EA977B",
"                                                                                                                                ",
"                                                          c +.+.f 6.P                                                           ",
"                                                J Q $.c '.n :.` ` ` ` :.n &.*.g.                                                ",
"                                          Q Q +.n ` u.:.&.d 6.+.T +.6.d g.G ` u.` :.n                                           ",
"                                      Q J *.` :.].Q : < ^ K J $.$.$.J K ^ < E m g &.:.:.G                                       ",
"                                  K J G ` e K + K T P P P 6. .c c f 6.P g g P T E : J ].*.n &.                                  ",
"                              Q K g.` g ^ ^ T P 6.T E ^ w A V R D D H R C E Q +.g ].T ^ K 6.>.>.e                               ",
"                            K +.` >.^ ^ c P T ^ B w y I D Z W ,.Y 2.e.e.e.2.|.Z V K f ].c E Q ].'.].                            ",
"                          E >.` $.< T P $.B B u w y C R D L Z X l.>+>+h G b.p.b.~.Y L 8.+.].T : T d 6.                          ",
"                        E n &.^ K P T ^ u u u u u w v y C M z H <.o.s.|.Y e.~.b.p.p.p.2.L K 6.g E Q ].f                         ",
"                      K :.e < $.P E B u u u u u O w w w S y A V R ..Z /.W ,.|.2.h b.p.p.~.,.V ^.d m E ].c                       ",
"                    K :.'.+ T  .< ( B u u u u w v v y y (.%.A y y x V I z L Z X ,.Y e.b.b.b.Y H Q ].T ^ g +.                    ",
"                  ^ G e + +.+.+ + + + u ( B w w w v v v S y y x x A A y y C R ..<.W ,.Y 2.h h Y L J ].T ^ g ^.                  ",
"                E g.*.+ T +.+ + + + + + + ( N u B u u w w v v 1.x C C C C A y A M z Z W X |.2.2.|.L ^.].^.E ].J                 ",
"              Q 6.:.^ ^.f + + ( + + ( B + + B F F ( B u N w v q.[.A x C C V C x A y C z H Z X ,.Y ,./.+.d J Q ].K               ",
"              K ` J K 6.^ + ( + + + + + + ( + ( u u B w N u u L.v.v y A x C V V V x y y C z H /.X l.X l  .d E T  .              ",
"            K n d < 6.E + + + + + + + + + + + O u F u O w u M.E.D.v v v y A x C C V C x A y C R <.z.Z D P g P : g $.            ",
"          J T ` : T ^.+ + + + + + + + ( + + u N N {.7.).u u E.V.$+S v v S y y y x x C C x A v A !...<.H ..e '.$.Q g <           ",
"          K :.c E 6.< + + + + + + + + ( B B 7.7.).7.{.).O S q.y.%+S v v v v v y A y y x x x A y y S !.I #.+.g.d : 6.$.          ",
"          T :.< f Q + u w + + + + + F + B B {.).).).N v S q.V.H.j.w.S y y v v v v y v y S y y y y v v v %.y >.g.T K P           ",
"        Q n 6.^ 6.+ + + w + + + + ( F w O {.u w N [.3.%.(.Q.N.i+~+Q.A A %.A y y v v v v v v v v y y y v w w ^.G e : 6.Q         ",
"        Q ` ^ +.$.+ + u + + + + B u u ).=.x.C.O.<.=._.@.=.j.N.i ~+Q.1.s.U x A ++E.x.D.v w w w w v v y v w u N *.n $.J  .        ",
"      J ].*.+ 6.{.+ + ).( + B + v A.H.O.1+1+N.U.t.%._.@.@.G.@+@+9+O.h+K.@.=.%.E.U.(+(+O.b Q.D.u u u w v v u u 6.:.d < g :       ",
"      Q :.T K  .+ ( + + + ( m.E.E.Q.m.Q.Q.D.G.w.y.w.U #.O.++@+9+9+@+@+1+h.i.H.&+j.w.x.E.j.A.y.H.A.O u w v w u 8.G &.^ 6.m       ",
"      J ` ^ +.J ( 3.F w G.Q.U.V.j.M.<+U.j.a+,+G.w..+@+H.z+C+(+_+@+}+j+C+&+9+(+w.a+|+y.q.;+a+E.M.7+V.j.[.u u u u e :.$.m f       ",
"      T :.+ 6.: + + D.Q.O.,+,+C.7+|+$+C.,+#+a+j.j.Q.A.P.j+i ~+E+i+z+z+z+G.j.&+E.<+Z.#+j.%+`.6+%+L.<+N.j.G.w B u  .:.g ^ 6.      ",
"    T '.*.< 6.v ^ G.x.v + + _.&+V.H.Q.w.<+7+&+Q.A.7+&+X C+z+z+i i+l+z+h+G.<+y.y. +d+<+$+Q.&+M.L.A.U + ( S x.y F ^.n g.+ P <     ",
"    $.n g E  .N G.x.N B + + =.5.9.9.{.w.w.A U U }.H.N.P.h+j+z+i 9+(+l+b P. +l.1.t.@.!.A.(.[.O N y + + + + ( M v E g.G < 6.^     ",
"    ^.:.T Q f S {.B {.O B ( {.5.5.9.(.S %.%.C U !.}.z L l.z+z+j+!+h+@+:+<.D z ..1.!._.A v v w w F + + + + + + ^ O ].:.^ 6.K     ",
"    +.` J ^.T N N {.{.3.).O 3.9.3.3.(.=._.=._.R z n...}.s.h+H..+E+6+;+{+J.o.<.}.@.#.U A v v u u F + + + ( + + + +  .` E f J     ",
"    +.` Q T ^.B (.B w [.O {.9.5.3.).(.[._.=.U #.#.t.t.4.y.a+;+;+6+,+h+Y.n.n.}...#.#.M x y v u u F + F + + + + + + T ` K T ^.    ",
"    c ` K T ^.+ + + B v O O f.3.[.v y A =.!.=.1.1.i.n.1.3+@+~+~+~+@+4.4.<...D D z I R x y y w u B u ( B + + + + ( T ` K T ^.    ",
"     .` Q T l B B F w {.w S [.t.t.r.!.}.!.!.@.f.i.n.o.<.4.P.1+@+b ++A.E.<.<...1.1.#.M %.[.S O N O F + + + + + + + $.` K T ^.    ",
"    P ` J ^.+.O N [.9.[.O v 5.f.t.}._.t._.n.X.F.n.t.}.1.H h+1+P.M.$+/+E./.@.i.1.!.=.!.=.%.v u w F + B B F + + + < $.` E c J     ",
"    6.` T Q f [.=.5.f.).w ).=.[.C V V @.@.t.1.R 1.1.D D L O.7+;+`.[+ +/.L 1.@.}._.U _.%.v [.N O B u B B ( ( + + < ^.` ^ 6.E     ",
"    o :.6.E 6.S =.[.!.(.O O v [.C 1.1.o.@.1.-.z z z D D L.6+6+6+/+ +++H D -..._.@.-.!.A v [.{.{.w 3.F ( u ( + + K ^.:.+ 6.^     ",
"      G e < P v }.}.5.U (.[.O =.#.=...1.@.1.z z z z D G.V..+-+h+q+)+l.D z z -.#.#.#.!.(.S O w {.w 7.w {.F ( + + K 6.n + 6.      ",
"      n *.< P (.t.n._.!.!.!._.=.!.1.z #.1...H H z D D L Q.n+g+(+)+-+4.z z -.R I U U U =.{.{.O w + F ( u ( ( + + K *.d ^ 6.      ",
"      &.G E c $.U 1.}.!.@.=.!.f.=.1.I ..1.H H ..H H D H D 1+'+s )+n+w...R R I V C C y y v O {.7.N u + ( + + + < K ` m J c       ",
"      *.:.T Q 6.x o.@.@.@.i.}.=.%.x M R z D H L /./.H D H P.]+n+n+O.y...I I M M x y v N w w B w B u ( + + + + E Q ` :  .J       ",
"        :.d < g (.o.h.n.o.}.t.i.i.f.!.@.-.z H L /./.L L A.L.U.a+/+7+V.R V M V x y v w w u B w ( u ( + + + + + K d *.+ 6.        ",
"        :.g.E c ^.@.o.h.4.<.1.-.}.=.#.!.-.-.D D H L L L w.U./+;+,+.+Z M V C M y v v u u B F + + + + + + + u : E ` $.Q f         ",
"        n n +.E g #.4.z.l.4.h.o.@.@.1.}.1.#.-.z D L H L L p.n+H.n+b I R M U A y y w w u F + + + + + + + + B E T :.+ 6.K         ",
"          G '.: 6.$.H 4.K.4.z.4...F.@.1.1.#...-...D H H H <.*+(+]+H.-.I C x y v w u w N F + + B + + + + + ^ E :.+.E 6.          ",
"          n >.T E g x Z l.|.X W h.o.z.@...#.!.-.-.R z D D L -+O.0+y...I V %.y y v w N ( + B + ( B ( + + + E f :.<  .J           ",
"            *.d E c +.D X >+s.s.,.4.F.K.o.h.1.#.@...I ..z j.V.U./+{+R I I x A y {.).B B B + + + v F + + E E ` $.K 6.            ",
"            *.d 6.^ ].z W >+Y S.s.s.z.<.h.h.4.1...#.U V I S.E+d+N.Q.I M M U y v 3.7.u B B + ( + {.( + E E g.>.+ 6.Q             ",
"              e d m Q ].m ,.3+3+>+s.l.s.W Z 4.1...z -.V V M A.H.b x.V =.=.#.x %.v ).{.B w + ( ( + + + E 6.:.: T +.              ",
"                P d E T P 4.s.s.S.Y >+3+h.W Z <./...@.-.I j.s.P.{+M %.x C %.%.v v O w B ( ( ( B F < K ^.u.Q K 6.                ",
"                ].c g ^ c 6.Z ,.S.2.Y.s.z.K.W o.o.o.h.<.l.x.x.S.P.%.v v v v v w w w w u u N w + ( K $.u.T ^ P K                 ",
"                  6. .6.:  .6. .l.2._+s.s.>+l.3+4.<.o.....#.-.Y p.#.v v [.{.u u w u u u w 3.( ^ E ^.u.+.: 6.m                   ",
"                    T 6.6.: c ].g l.S.2.2.Y S.S.,.X 4.<.o...H -.V C %.(.O w u w B B N F u B %.E f u.T : 6.^.                    ",
"                      ^. .6.^ T d d 2.l.Y 2.Y Y Y |.,.|.o.<.L @.R #.-.%.}.y v v u B + S B A E >.` J ^ 6.^.                      ",
"                        ^.c g E Q o >.g.].P.S.Y S.2+|.,.|.X Z n.<.1.R I }.%.y w w B F E E T ` *.E K P $.                        ",
"                          J ^.d $.^ c >.n r q b H.c+H.s.,.X X O.L H z -...=.(.v v K E J *.:.T + ^.P K                           ",
"                            Q Q g 6.N.N.P j 2+A+b N.2+X X A.c+P.G.L z M ..I V A.W N.2+s r o+2+H.+.<                             ",
"                              ^ E ^.A+2+&+N.k+e.b.++A+o N.s+2+A+r b Z V.2+z 2+++` *.l 2+D.2++.K < <                             ",
"                        < + + < x.O.=+s+s+N.s+N.P.l.2+s+b+++o+o+b G b s+r s q +.E + q k+S.2+( ( ( + < < < +                     ",
"                    + < + < < G.r j.A+w.s+k+q O.S.H 2+a.2+q o+N.P.G.s+N.A+k+E Q +.6.O.o+q o++ ( + ( < + + < +                   ",
"                    + < + < ( ( + ^ N.N.N.o+o+&+j.o+o+k+N.k+k+2+O.2+o+X s+S.6.X H.2+o+2+N.k+r G.+ ( < + < < <                   ",
"                      < < + < + ( ( ^ Q.x.C + x.2+o+Q.8.N.m ^.T +.T ^.H G.< < < ( + + + ( F + ( < < + < +                       ",
"                              < < + < + < + G.N.o+P.( + q q + + + + ( + + + ( ( + ( ( < + < + < <                               ",
"                                            o+O.x.( < < < H.^ < < + + + < < + < (                                               ",
"                                                                                                                                "};
