/* XPM */
static char * RidesAgain_70x70_xpm[] = {
"70 70 2 1",
" 	c None",
".	c #6A401C",
"                                                                      ",
"                                                                      ",
"                                                                      ",
"                                                                      ",
"                                                                      ",
"                                                                      ",
"                                                                      ",
"                                                                      ",
"    .......................................................           ",
"    ........................................................          ",
"    ........................................................          ",
"     .......................................................          ",
"     ......................................................           ",
"     .....................................................            ",
"     ....................................................             ",
"     ....................................................    ...      ",
"     ............................................................     ",
"     ............................................................     ",
"     ............................................................     ",
"      .........................................................       ",
"      ........................................................        ",
"      ........................................................        ",
"      .........................................................       ",
"      .......................................................         ",
"      .......................................................         ",
"      ......................................................          ",
"      ......................................................          ",
"      .......................................................         ",
"      .......................................................         ",
"      ......................................................          ",
"      .....................................................           ",
"      ....................................................            ",
"      .....................................................           ",
"      ....................................................            ",
"      ..................................................              ",
"      ..................................................              ",
"      ..................................................              ",
"      .................................................               ",
"      .................................................               ",
"      .................................................               ",
"      ................................................                ",
"      ...............................................                 ",
"      ..............................................                  ",
"      ..............................................                  ",
"      ............................................                    ",
"      .............................................                   ",
"     .............................................                    ",
"     .............................................                    ",
"     ............................................                     ",
"     .............................................                    ",
"     ...........................................                      ",
"     ............................................                     ",
"     ...........................................                      ",
"      .........................................                       ",
"           .....................................                      ",
"           ......................................                     ",
"           ......................................                     ",
"           .....................................                      ",
"           ......................................                     ",
"           ......................................                     ",
"           .....................................                      ",
"           .....................................                      ",
"                                                                      ",
"                                                                      ",
"                                                                      ",
"                                                                      ",
"                                                                      ",
"                                                                      ",
"                                                                      ",
"                                                                      "};
