/* XPM */
static char * RedneckRampageRoute66_70x70_xpm[] = {
"70 70 131 2",
"  	c None",
". 	c #47704C",
"+ 	c #909090",
"@ 	c #898989",
"# 	c #AEAEAE",
"$ 	c #BEBEBE",
"% 	c #909090",
"& 	c #909090",
"* 	c #959595",
"= 	c #9C9C9C",
"- 	c #818181",
"; 	c #D2D2D2",
"> 	c #D8D8D8",
", 	c #757575",
"' 	c #737373",
") 	c #878787",
"! 	c #A8A8A8",
"~ 	c #676767",
"{ 	c #B3B3B3",
"] 	c #B3B3B3",
"^ 	c #C7C7C7",
"/ 	c #696969",
"( 	c #707070",
"_ 	c #A9A9A9",
": 	c #808080",
"< 	c #6F6F6F",
"[ 	c #DADADA",
"} 	c #666666",
"| 	c #6F6F6F",
"1 	c #5F5F5F",
"2 	c #565656",
"3 	c #575757",
"4 	c #D3D3D3",
"5 	c #BABABA",
"6 	c #E9E9E9",
"7 	c #585858",
"8 	c #575757",
"9 	c #E4E4E4",
"0 	c #EDEDED",
"a 	c #E7E7E7",
"b 	c #D9D9D9",
"c 	c #575757",
"d 	c #585858",
"e 	c #524234",
"f 	c #483A2E",
"g 	c #554537",
"h 	c #3D2F24",
"i 	c #686868",
"j 	c #7F7F7F",
"k 	c #4B3C2F",
"l 	c #30251B",
"m 	c #4E3F32",
"n 	c #36291F",
"o 	c #33271D",
"p 	c #5C4B3D",
"q 	c #3A2D22",
"r 	c #58483A",
"s 	c #6C6B6B",
"t 	c #A4A4A3",
"u 	c #919090",
"v 	c #382B21",
"w 	c #656565",
"x 	c #46372B",
"y 	c #604F40",
"z 	c #3F3126",
"A 	c #675546",
"B 	c #706F6F",
"C 	c #9F9F9F",
"D 	c #2D2219",
"E 	c #635243",
"F 	c #6B5949",
"G 	c #E0E0E0",
"H 	c #705D4D",
"I 	c #9B9B9A",
"J 	c #756251",
"K 	c #7B7A7A",
"L 	c #E5E5E5",
"M 	c #777676",
"N 	c #A8A8A7",
"O 	c #2B2017",
"P 	c #8D8D8D",
"Q 	c #7C6856",
"R 	c #DADADA",
"S 	c #979797",
"T 	c #060201",
"U 	c #B0B0B0",
"V 	c #443529",
"W 	c #221811",
"X 	c #888888",
"Y 	c #949494",
"Z 	c #281E15",
"` 	c #413327",
" .	c #ACACAB",
"..	c #EFEFEF",
"+.	c #828282",
"@.	c #B4B4B4",
"#.	c #BBBBBB",
"$.	c #261B14",
"%.	c #836F5C",
"&.	c #1F150F",
"*.	c #BEBEBE",
"=.	c #EAEAEA",
"-.	c #737373",
";.	c #C6C6C6",
">.	c #D2D2D2",
",.	c #CACACA",
"'.	c #D6D6D6",
").	c #868585",
"!.	c #CECECE",
"~.	c #1B120D",
"{.	c #C2C2C2",
"].	c #41352B",
"^.	c #5E5D5D",
"/.	c #160E0A",
"(.	c #120A07",
"_.	c #8B8B8A",
":.	c #0C0604",
"<.	c #B7B7B7",
"[.	c #8C7763",
"}.	c #575452",
"|.	c #746A61",
"1.	c #8C7D6F",
"2.	c #807468",
"3.	c #685E55",
"4.	c #4E4A47",
"5.	c #98836F",
"6.	c #9D8D7D",
"7.	c #8F867C",
"8.	c #9A928B",
"9.	c #A89F96",
"0.	c #A79786",
"                                                                                                                                            ",
"                                                                                                                                            ",
"                                                                                                                                            ",
"                                                                                                                                            ",
"                                                                                                                                            ",
"                              0 =.                                i i / <                                 '.,.                              ",
"                            9 0 a G '.                        / } } i i s B ,                         =.9 [ !.$                             ",
"                          b 9 !.U > b ,.{.<.#         +.K , < s s / 3.3.w s ' K j ).P           !.b 6 =.9 ^ b {.@.                          ",
"                        ; > {.M m 3. .'.4 {.{ N = Y _.).: K , |.3.F F E Q |.|.( K +.P * C _ @.$ ^ ; !.@.B e K !.@._                         ",
"                      ;.!.#.M m r m z r 2.8.I I Y u ).j |.3.m H F J J E J Q %.Q 2.|.M - P Y S S 8.7.F E f e e : ;.N =                       ",
"                    5 ;.{ B e g g m q p F A H A x H F H F F m H J Q J A Q Q [.%.1.F H H H E r y H H H A x e g r +.5 = +                     ",
"                  # 5 _ K q g k k m h y F H Q F x H J A Q A e J J J Q F |.[.%.1.6.H F J y y r E H J [.H f e p g p ).# + )                   ",
"                  # C ' F V g 4.}.1 / K 2.J J F m _.= u 1.H e J |.|.Q A |.2.2.1.6.j 7.8.8.C N 8.1.9.9.7.M B 3.e p r j t ).                  ",
"                t S |.H F f e K * N <.;.,.8.F |.$ $ # C Y +.r Q |.} |.A |.1.: 7.8.N <.,.[ =.G # 7._ I ) , w }.e r p z _.* K                 ",
"              I P 2.p F A f g : I +.) { [ ,.A # ,.U 7.K P ).B Q |.} |.F Q 7.+.7.6._.8.;.G <.N 7.7.t ).|.3.}.E g r p q H _.@ s               ",
"            + ).|.J A 3.F V e - = p x 2.[ !.F !.;.2.J p |.+.M Q |.} |.H |.7.).7.6.J J $ 9 |.g y 6.t j |.3.}.A e p y x J J j K 1             ",
"          ) P s H H F E A V g ).C Y t {.G N J ; <.F J A J K M H |.~ |.H |.2.).7.5.H J {.a |.m r 7.C * _.K / }.g r r ].H F F P w 3           ",
"            + u w A F e F z k ).t U $ ; [ 7.|.; #.F A A E K ' F |.~ 3.H |.2.) 7.5.Q F ;.6 |.e p 7.= X ' 1 }.r p m g x A E j K 1             ",
"              I + |.A e y V r ) t }.4.t 9 #.Q ^ $ M E J |.j B A |.~ 3.A H 2.@ 7.[.H H ,.=.3.g p 1.I 1.A e k m g g e q r |.P s               ",
"                t +.F e m n r _.t p V 1.a ;.J t $ U u 7.) K 3.A |.i / 7 3.K _.1.Q E A ,.=.3.r g 1.S u )., w 3.r e f l f S K <               ",
"                N t K r g v g _.N y h 2.6 ^ Q H t  .C u ).s m E Q |.s ( K +.7.5.Q F E !.=.3.k f 2.Y +.( 1 }.4.p r f v ' Y K                 ",
"                  # + E g q m |.M m h p t 7.Q A f |.j B |.p k E H J J 3.3.|.Q [.%.E E 8.9.p k z |.2.|.3.4.m e e g m o = ).                  ",
"                  # ! |.e n k k g x h m J y H p ` y A J J m f E J %.H e r Q [.1.Q E y y p m k z J F A p ` f m r y m 1 C +.                  ",
"                    <.@ K ).u = N { #.;.,.^ $ U t I u _.+.' s s |.|.w ^.1 s M K M K +._.u I t  .#.#.#.{ N I Y _.+., = * ).                  ",
"                    5 C = _ <.{.!.[ =.0 G 4 ^ 5 # t S P ).K ' s ~ } i / < ' K : @ u = _ <.;.4 a 0 G ; {.{ t S X K s # +                     ",
"                    5  .' / M - _.u I t # U  .I P _.7.j K s 1 |.|.|.3.}.7 |.2.2.2.B , K 7.X P * N N # t S P X ).K K U +                     ",
"                    5 U |.n V f e ` o e A E F r z r A H F r ` y F H A g p F J %.J p e m y f h h A p E g v z x k g B  .+                     ",
"                    #.@.|.n V V x x l f A y H p v g A F F e ` p F F y e r y H Q J y e m e k q n E p A g o q V f k K _ u                     ",
"                    5 @.~ v z ` h x D x F g H A q e F H A e z p F H r f g r Q %.A y e k f x q l y g E y q v ` m x K ! u                     ",
"                    5 # 7 l V V q z Z x F r 3.' ).Y I S 2.m h r E F g V e e H J y e 4.7 1 s , K K 3.m r h n q x x s _ +                     ",
"                    5 t r Z ` V z n Z f }., + t { {.; [ G @.g p A A e x r p J F y w / < M j X Y C  .S y v h z V ` 4.# +                     ",
"                    5 P f $.q ` ` n z w j P =  .5 ,.> 6 0 G $ A y y e x g y E A } / s ' K +.P I ! <.,.$ 4.q z q q q  .+                     ",
"                  U # s q W n h ` q } : ).Y t { {.; G 0 a '.^ I E A e z f y J i ~ s B , j ) Y C # $ ; a $ l h ` V D u * ).                  ",
"                  # Y m D $.n n V }.j : _.I _ { U {.9 0 G !.$ U 3.p m q V r 3.} i s ( K j K @ t <.^ [ 0 9 s q q n O }.t +.                  ",
"                t t w m n Z n o f M : ).u t ).p n m M [ > ^ 5  .: p m q V p i ~ / < , w ].l $.4.# ; 9 =.[ t q v n D $.u _.K                 ",
"                t +.].e l Z v q }.: : _.I P m g l f g u !.$ U t @ p g n h 3.} i s ( / ` v D &.v ' > 6 9 ; U q l h l &.4.I M                 ",
"              I S ^.l k l O h n B : +.u C |.g f l m r k E m ].r p g e n q 1 ~ / < , 4.z o D O q V y 4.g ].].l O h D &.l j - <               ",
"              I : k D x l D n q K : @ S C r |.* 5 ; [ ; _ 1 n f e e m o q w i s ( , z 4.' + t { <._ M n D O O D h D &.D 4.+ s               ",
"              S 1 q n q n W o m : +.+ C I ).#.> =.=.[ ,.$ @.+.f e e x l ].~ / < , ( 1 _.I  .5 ,.G =.9 <.].D Z l v Z &.D q +.B w             ",
"            u _.4.q f n q Z n }.: ) S t  .$ 4 9 0 9 4 ;.@.N = K g g x l 4.i s ( M j ) * t { {.'.6 a '.,. .v D q q O &.q q |.K 1             ",
"            + j m l x v h $.l ^.- P C  .#.,.b 6 =.[ ,.$ U t * _.3.m V o 4./ < ' K ).P I _ 5 ,.G 0 G !.$ U j o v l l W ` l e ).1             ",
"            + < q o z ` o $.o ^.).* t { {.; G G ,.;.;.<._ = + )., m x D 4.s B M j X Y t N _ $ L 6 > ;.@.t S h v v D &.v o z j 1             ",
"            + ^.q l x f v $.l ^.P =  .5 ,.; _.f D f w N t S _.j M r ` l 4.s ' K +.P S / o W &.w ,.!.$ # = P }.q v l W q D V M w 7           ",
"            P }.l v g ` v $.l 1 Y t { {.; = e V D x f |.= u ).K ( }.h O 4.B , j ) Y ' D Z W ~.~.^.;.<.N * +.^.` ` O W l n g s s 7           ",
"            P 4.v h g h n $.n 1 I _ <.^ '.3.k z D V x m P _.: M < }.z D 4.' K +.P S 4.l O Z ~.W v _ # C P K 7 V h l $.v h g w < 3           ",
"            P 4.v z r ` o Z l }.t U $ !.'.p m x O x m k : ).K ' / }.z Z f , j ) u C z Z D O ~./.q * N * ).' }.x h l &.q h r 1 < 7           ",
"            P 2 n m p V q $.o m ! <.;.'.9 3.m ].D x r f - - M < ~ }.z O z M - _.S t 4.Z $.Z ~./.z S C P j s 4.f ` o W v m p ~ s 3           ",
"            + w q m r V q $.o q N $ !.[ =.I m f O x r y ) K ' s } 4.z O v ' ).u C  .- $.O $.&.&.4._ S ) , w 4.f x o W v m r , } 7           ",
"            + M x f r v h $.o v Y ;.4 9 0 [ |.f l V g j +.M < i w m q D q w _.S t { 5 7 $.$.&.Z C t + j < ^.x k h o $.z x r j 1             ",
"            + X 4.m m v ` O o l } ,.[ =.=.[ ; = , K + @ j ' s } ^.V h D q 4.P =  .#.,.!.t u = #.{ I X M } }.` f q v Z q k E ).1             ",
"            u S w x m o h $.n o n <.9 0 9 4 ;.<. .C + +.K B i w 4.V q D q q j t { {.'.6 a [ !.@.t u : < ^.m q x q n Z q x K M 1             ",
"              I @ 4.k v h $.n o n ^.G =.[ ,.$ U t * @ j , s } }.h ` q D q o e C 5 ,.G 0 G !.$  .I _.K ~ 4.h v x h v $.h 4.+ s               ",
"              = t K m n q W l O l Z ' > 4 ;.<._ = + ).K ( i }.z h ` n D h o h }.@.4 6 6 > ;.@.t Y +.( }.$.h h V h n Z f + j <               ",
"                t t K q n ~.$.&.$.W &.4.t 5 U t * _.j , w m D z h z n D ` h V n 4.N G G !.$ # = _.( 4.q Z z z x q v O P u M                 ",
"                  # # X m /.&.&.~.&./.$.q m |.s } 1 }.f V n O q x ` v D h n x x k o v s +.j ' 7 f ` f n Z h ` k h ].Y C ).                  ",
"                    5 $ N ( D W ~.~./.W q x m v Z ` q x ` n D q V ` v D z o ` k f n &.$.$.~.~.~.o V x v Z ` V f w # N +                     ",
"                      ;.!.,.U X 4.O &.Z q h m v O V h f x q D z V z n D h q q k f o $.W D &.&.~.l o V n Z x M { ;. .I                       ",
"                          b 9 9 > {. .P |.p y k q V q V ` o D h z h o Z o o n x V o $.Z O W $.o m 4.|._.U > [ {.{ N                         ",
"                              =.=.G b b 4 ^ #.# t S ) B }.h O q z q o O n v n V ` l f ^.M P C U $ !.[ a 9 '.,.$                             ",
"                                    '.,.{.<.# t I Y _.).+.M 7 f ` q l O q n v 4.1 M X Y C _ @.$ ,.[ a =.9                                   ",
"                                                      +.K , ' B 7 ].D D h 4.w ' j ).P * C                                                   ",
"                                                            < / i ~ 4.m 1 s , K j                                                           ",
"                                                                ~ } i i s B                                                                 ",
"                                                                    i / s                                                                   ",
"                                                                                                                                            ",
"                                                                                                                                            ",
"                                                                                                                                            ",
"                                                                                                                                            ",
"                                                                                                                                            ",
"                                                                                                                                            "};
