/* XPM */
static char * eduk32_48x48_xpm[] = {
"48 48 903 2",
"  	c None",
". 	c #277BEE",
"+ 	c #4F8EF1",
"@ 	c #5C96F2",
"# 	c #5F99F3",
"$ 	c #5D98F3",
"% 	c #5393F2",
"& 	c #448AF1",
"* 	c #1E79EE",
"= 	c #3F84EE",
"- 	c #73A4F4",
"; 	c #8EBAF9",
"> 	c #AACFFE",
", 	c #BCDBFF",
"' 	c #BFDDFF",
") 	c #BEDDFF",
"! 	c #BBDBFF",
"~ 	c #B6D9FF",
"{ 	c #B3D7FF",
"] 	c #ADD4FF",
"^ 	c #A3CEFF",
"/ 	c #8ABEFE",
"( 	c #66A7F9",
"_ 	c #4C94F4",
": 	c #257CEE",
"< 	c #679CF3",
"[ 	c #98C1FA",
"} 	c #CAE3FF",
"| 	c #DFEEFF",
"1 	c #EBF5FF",
"2 	c #E9F4FF",
"3 	c #E1EFFF",
"4 	c #D8EBFF",
"5 	c #D1E7FF",
"6 	c #C5E1FF",
"7 	c #C6E2FF",
"8 	c #C9E3FF",
"9 	c #CEE6FF",
"0 	c #D4E8FF",
"a 	c #C2DDFF",
"b 	c #A0CAFF",
"c 	c #5CA2FA",
"d 	c #3688F3",
"e 	c #679BF2",
"f 	c #A9CDFC",
"g 	c #DCECFF",
"h 	c #F7FBFF",
"i 	c #FAFCFF",
"j 	c #F5FAFF",
"k 	c #EEF6FF",
"l 	c #E5F2FF",
"m 	c #DBECFF",
"n 	c #C7E2FF",
"o 	c #BFDEFF",
"p 	c #BADCFF",
"q 	c #BCDDFF",
"r 	c #C2DFFF",
"s 	c #D9EBFF",
"t 	c #E8F4FF",
"u 	c #E6F1FF",
"v 	c #BBD6FF",
"w 	c #65A7FC",
"x 	c #2C84F2",
"y 	c #4083EE",
"z 	c #96BFFA",
"A 	c #D8EAFF",
"B 	c #FBFDFF",
"C 	c #FFFFFF",
"D 	c #FEFFFF",
"E 	c #FAFDFF",
"F 	c #F4FAFF",
"G 	c #E0EFFF",
"H 	c #DAEBFF",
"I 	c #D6E9FF",
"J 	c #D0E6FF",
"K 	c #CBE4FF",
"L 	c #F1F8FF",
"M 	c #F4F9FF",
"N 	c #B6D2FF",
"O 	c #4194FA",
"P 	c #1277EE",
"Q 	c #6399F2",
"R 	c #B8D7FE",
"S 	c #EDF5FF",
"T 	c #FCFDFF",
"U 	c #FEFEFF",
"V 	c #F8FBFF",
"W 	c #F8FCFF",
"X 	c #FCFEFF",
"Y 	c #EBF0FC",
"Z 	c #D6DEF5",
"` 	c #C6CFEC",
" .	c #C1CAE9",
"..	c #C1CAE8",
"+.	c #C6CFEA",
"@.	c #D6DEF4",
"#.	c #EBEFFB",
"$.	c #F2F8FF",
"%.	c #F2F9FF",
"&.	c #F9FCFF",
"*.	c #E6EFFF",
"=.	c #75ACFE",
"-.	c #1A7DF2",
";.	c #75A6F5",
">.	c #C8E2FF",
",.	c #F6FAFF",
"'.	c #FDFEFF",
").	c #D8E0FA",
"!.	c #9EB4F0",
"~.	c #4981E7",
"{.	c #006BDF",
"].	c #0069D9",
"^.	c #0066D3",
"/.	c #0063CE",
"(.	c #0060CA",
"_.	c #0063CD",
":.	c #0064D1",
"<.	c #0066D5",
"[.	c #497DDE",
"}.	c #9EB3EB",
"|.	c #D8E0F8",
"1.	c #98BDFF",
"2.	c #197FF4",
"3.	c #77A9F5",
"4.	c #CBE3FF",
"5.	c #EDF6FF",
"6.	c #EEF7FF",
"7.	c #EFF7FF",
"8.	c #C8D4F9",
"9.	c #6090F3",
"0.	c #0077F6",
"a.	c #0077F9",
"b.	c #0074F2",
"c.	c #0070E9",
"d.	c #006CE0",
"e.	c #0067D7",
"f.	c #0064CF",
"g.	c #0061CB",
"h.	c #0064D0",
"i.	c #0067D6",
"j.	c #006BDE",
"k.	c #006FE6",
"l.	c #0071ED",
"m.	c #0072ED",
"n.	c #5F8EEF",
"o.	c #C8D4F8",
"p.	c #9FC2FF",
"q.	c #127EF5",
"r.	c #70A4F4",
"s.	c #C6E1FF",
"t.	c #E6F3FF",
"u.	c #E4F1FF",
"v.	c #E7F3FF",
"w.	c #E3E9FB",
"x.	c #6E97F1",
"y.	c #0278F9",
"z.	c #037CFF",
"A.	c #007BFE",
"B.	c #0076F7",
"C.	c #0071EC",
"D.	c #0065D3",
"E.	c #0060C7",
"F.	c #005CBF",
"G.	c #005ABC",
"H.	c #005DC2",
"I.	c #0062CB",
"J.	c #006DE2",
"K.	c #0076F5",
"L.	c #007AFD",
"M.	c #0178F8",
"N.	c #6E97F4",
"O.	c #E3EAFC",
"P.	c #F3F9FF",
"Q.	c #93BAFF",
"R.	c #0A79F4",
"S.	c #5C95F2",
"T.	c #BBDAFF",
"U.	c #DDEDFF",
"V.	c #DEEDFF",
"W.	c #BFCDF4",
"X.	c #2076ED",
"Y.	c #0078FB",
"Z.	c #0079FB",
"`.	c #0075F4",
" +	c #0070E8",
".+	c #0068D9",
"++	c #0060C9",
"@+	c #0059BA",
"#+	c #0054AE",
"$+	c #0050A7",
"%+	c #0050A5",
"&+	c #0053AC",
"*+	c #0058B8",
"=+	c #005FC6",
"-+	c #006EE4",
";+	c #0074F1",
">+	c #0078FA",
",+	c #017BFF",
"'+	c #037CFE",
")+	c #207AF4",
"!+	c #BFCEF8",
"~+	c #D2E7FF",
"{+	c #73A8FF",
"]+	c #0476F1",
"^+	c #3981EE",
"/+	c #A7CEFE",
"(+	c #D3E8FF",
"_+	c #A6B9EC",
":+	c #006FE7",
"<+	c #0074F3",
"[+	c #0073F1",
"}+	c #006ADD",
"|+	c #005BBE",
"1+	c #0053AD",
"2+	c #004D9F",
"3+	c #004896",
"4+	c #004590",
"5+	c #00458F",
"6+	c #004997",
"7+	c #004FA4",
"8+	c #0056B3",
"9+	c #005EC5",
"0+	c #0079FC",
"a+	c #007BFF",
"b+	c #A7BBF2",
"c+	c #E2F0FF",
"d+	c #D5E9FF",
"e+	c #B4D7FF",
"f+	c #458FFE",
"g+	c #0172ED",
"h+	c #84B6FA",
"i+	c #D1E6FF",
"j+	c #D7EAFF",
"k+	c #CFE6FF",
"l+	c #A6B8E9",
"m+	c #006DE3",
"n+	c #236CD6",
"o+	c #B0BEE8",
"p+	c #406DC0",
"q+	c #0055B0",
"r+	c #004EA3",
"s+	c #004999",
"t+	c #00448D",
"u+	c #003D7E",
"v+	c #003976",
"w+	c #003875",
"x+	c #003C7D",
"y+	c #00448E",
"z+	c #004DA1",
"A+	c #8AA4E7",
"B+	c #2475E9",
"C+	c #0077F8",
"D+	c #0073EF",
"E+	c #A7BAEF",
"F+	c #C1DFFF",
"G+	c #AFD6FF",
"H+	c #8CBFFF",
"I+	c #0A7AF9",
"J+	c #5694F2",
"K+	c #BFCBEE",
"L+	c #006BDD",
"M+	c #006ADC",
"N+	c #5C81D0",
"O+	c #E4E9F7",
"P+	c #F2F7FF",
"Q+	c #C0C9E0",
"R+	c #004A9A",
"S+	c #003E81",
"T+	c #003269",
"U+	c #003165",
"V+	c #00336B",
"W+	c #00346D",
"X+	c #00326A",
"Y+	c #004187",
"Z+	c #6384CC",
"`+	c #FBFCFF",
" @	c #E5EAFA",
".@	c #5D89E6",
"+@	c #0073F0",
"@@	c #006EE5",
"#@	c #BFCCF1",
"$@	c #B8DAFF",
"%@	c #A7D1FF",
"&@	c #94C7FF",
"*@	c #589DFE",
"=@	c #8DBEFC",
"-@	c #DAECFF",
";@	c #E3E8F8",
">@	c #1F69D3",
",@	c #0067D5",
"'@	c #0062CD",
")@	c #6D89CD",
"!@	c #F0F3FB",
"~@	c #AFCAFF",
"{@	c #599EFD",
"]@	c #F2F5FC",
"^@	c #677595",
"/@	c #003771",
"(@	c #003C7C",
"_@	c #003E80",
":@	c #003F82",
"<@	c #003772",
"[@	c #CFD5E5",
"}@	c #CFE4FF",
"|@	c #D0E5FF",
"1@	c #F1F4FD",
"2@	c #6E92E4",
"3@	c #1F6DDA",
"4@	c #E3E9F8",
"5@	c #D2E6FF",
"6@	c #A0CEFF",
"7@	c #8DC4FF",
"8@	c #76B7FF",
"9@	c #177AF5",
"0@	c #5092F3",
"a@	c #C1DEFF",
"b@	c #E4F2FF",
"c@	c #DCEDFF",
"d@	c #F9FBFF",
"e@	c #6E8FDD",
"f@	c #0069DA",
"g@	c #5C7DC4",
"h@	c #F1F3FB",
"i@	c #9DBDFF",
"j@	c #1F87F7",
"k@	c #0C64C6",
"l@	c #ADBDEB",
"m@	c #D9DEE8",
"n@	c #7383AA",
"o@	c #4B86E2",
"p@	c #8ABEFC",
"q@	c #C7E0FF",
"r@	c #F2F5FD",
"s@	c #5D86DD",
"t@	c #006DE1",
"u@	c #6D8ED9",
"v@	c #F7FAFF",
"w@	c #A2CEFF",
"x@	c #87C1FF",
"y@	c #74B7FF",
"z@	c #4795FA",
"A@	c #76B0FA",
"B@	c #E7F2FF",
"C@	c #C8D3F2",
"D@	c #0065D2",
"E@	c #2361BE",
"F@	c #E4E9F4",
"G@	c #ADC6FF",
"H@	c #117FF7",
"I@	c #035FC2",
"J@	c #006BE0",
"K@	c #909BBA",
"L@	c #DADFEA",
"M@	c #2C7AE5",
"N@	c #87BDFD",
"O@	c #CDE3FF",
"P@	c #E4EAF8",
"Q@	c #236BD4",
"R@	c #0068D7",
"S@	c #C7D1ED",
"T@	c #D3E6FF",
"U@	c #84BFFF",
"V@	c #71B5FF",
"W@	c #5BA8FE",
"X@	c #0372EC",
"Y@	c #2B7EEE",
"Z@	c #B1D4FF",
"`@	c #EAF4FF",
" #	c #608BE6",
".#	c #0062CC",
"+#	c #B3BFE1",
"@#	c #D8E3FF",
"##	c #1181FC",
"$#	c #025FC4",
"%#	c #006CE1",
"&#	c #ECEEF5",
"*#	c #224B8B",
"=#	c #8593B4",
"-#	c #3582F0",
";#	c #8AC1FF",
">#	c #E4F0FF",
",#	c #B3C1E8",
"'#	c #0065D1",
")#	c #5F83CF",
"!#	c #8AC2FF",
"~#	c #5FACFF",
"{#	c #2C83F0",
"]#	c #5196F4",
"^#	c #D9E9FF",
"/#	c #F6FBFF",
"(#	c #D8E1FA",
"_#	c #0072EE",
":#	c #4875CD",
"<#	c #F5F7FD",
"[#	c #65A0FF",
"}#	c #076BD6",
"|#	c #AFB8CF",
"1#	c #024184",
"2#	c #E3E6F0",
"3#	c #569BFC",
"4#	c #9FCBFF",
"5#	c #F6F8FE",
"6#	c #4876CE",
"7#	c #0063CF",
"8#	c #005FC7",
"9#	c #D8DEF2",
"0#	c #BAD8FF",
"a#	c #73B6FF",
"b#	c #3E93F7",
"c#	c #006EE6",
"d#	c #62A5F9",
"e#	c #9EB5F4",
"f#	c #0076F6",
"g#	c #B5C2E6",
"h#	c #CDDFFF",
"i#	c #2287F5",
"j#	c #005FC5",
"k#	c #F7F9FC",
"l#	c #4E6799",
"m#	c #96A1BE",
"n#	c #0478F8",
"o#	c #79B7FF",
"p#	c #DAE9FF",
"q#	c #B5C2E5",
"r#	c #9DAFDD",
"s#	c #DEECFF",
"t#	c #75B7FF",
"u#	c #489EFE",
"v#	c #8CBDFE",
"w#	c #4D88F4",
"x#	c #027CFF",
"y#	c #0078F9",
"z#	c #EAEFFA",
"A#	c #8BBBFF",
"B#	c #1B72D5",
"C#	c #006ADE",
"D#	c #CBD0DF",
"E#	c #526A9D",
"F#	c #B1BACF",
"G#	c #C1C7D7",
"H#	c #99A3BE",
"I#	c #3A5993",
"J#	c #EBEDF5",
"K#	c #0274F0",
"L#	c #589FFF",
"M#	c #AED3FF",
"N#	c #0060C8",
"O#	c #0061CC",
"P#	c #4B77CD",
"Q#	c #77B8FF",
"R#	c #49A0FF",
"S#	c #1172E2",
"T#	c #1577EE",
"U#	c #A9CDFF",
"V#	c #ECF1FE",
"W#	c #5E88E1",
"X#	c #F3F8FF",
"Y#	c #58A7FF",
"Z#	c #0660C4",
"`#	c #FBFCFE",
" $	c #F9FBFE",
".$	c #2B89FC",
"+$	c #96C8FF",
"@$	c #F5F9FF",
"#$	c #5E83D3",
"$$	c #EBF0FA",
"%$	c #92C4FF",
"&$	c #479FFF",
"*$	c #1C78E3",
"=$	c #006FE8",
"-$	c #2D82F1",
";$	c #B5D4FF",
">$	c #D7E0FA",
",$	c #9BAFE5",
"'$	c #DBE9FF",
")$	c #539FF5",
"!$	c #1B82F6",
"~$	c #8EC2FF",
"{$	c #E3EFFF",
"]$	c #9AADDE",
"^$	c #D6DEF3",
"/$	c #ABCFFF",
"($	c #5EABFF",
"_$	c #459EFF",
":$	c #207CE8",
"<$	c #006CE2",
"[$	c #3286F2",
"}$	c #C7D2F4",
"|$	c #B0BFE9",
"1$	c #CADFFF",
"2$	c #4892EA",
"3$	c #E2E5ED",
"4$	c #6A7DA8",
"5$	c #00468E",
"6$	c #8593B5",
"7$	c #F1F3F7",
"8$	c #1F81F3",
"9$	c #87BDFF",
"0$	c #D9EAFF",
"a$	c #B0BFE7",
"b$	c #C6CFE9",
"c$	c #BDD8FF",
"d$	c #5CAAFF",
"e$	c #419CFF",
"f$	c #207EE9",
"g$	c #3187F3",
"h$	c #ACD0FF",
"i$	c #C1CCF1",
"j$	c #C6CEE8",
"k$	c #D4E4FF",
"l$	c #9BBAF1",
"m$	c #9EB4EC",
"n$	c #50689A",
"o$	c #8D9ABA",
"p$	c #A1BCF8",
"q$	c #B7D5FF",
"r$	c #C5CEEA",
"s$	c #C2DBFF",
"t$	c #59A9FF",
"u$	c #3D9AFF",
"v$	c #1C7EEA",
"w$	c #2C85F3",
"x$	c #A0C9FF",
"y$	c #C2E0FF",
"z$	c #C1CCEE",
"A$	c #0069DB",
"B$	c #A5B2DB",
"C$	c #D3D9EC",
"D$	c #D3D7E5",
"E$	c #D3D6E2",
"F$	c #D3D7E4",
"G$	c #E9ECF4",
"H$	c #ECEEF3",
"I$	c #445F93",
"J$	c #DFE3EF",
"K$	c #D3DAF1",
"L$	c #D3DBF6",
"M$	c #A5B4E4",
"N$	c #C1DAFF",
"O$	c #56A7FF",
"P$	c #3897FF",
"Q$	c #187BE9",
"R$	c #2481F2",
"S$	c #91C2FF",
"T$	c #B7DAFF",
"U$	c #B4D8FF",
"V$	c #D5E8FF",
"W$	c #C6D0EC",
"X$	c #0053AB",
"Y$	c #003874",
"Z$	c #AEB5C9",
"`$	c #415D96",
" %	c #8290B5",
".%	c #7E8BAD",
"+%	c #0061CA",
"@%	c #0066D4",
"#%	c #51A4FF",
"$%	c #3294FF",
"%%	c #1277E4",
"&%	c #197CF1",
"*%	c #7FB8FF",
"=%	c #ACD4FF",
"-%	c #A9D3FF",
";%	c #C4DFFF",
">%	c #D7DEF3",
",%	c #005BBD",
"'%	c #0056B2",
")%	c #004C9D",
"!%	c #003F81",
"~%	c #8391B3",
"{%	c #DADEE8",
"]%	c #4D6699",
"^%	c #6C7EA8",
"/%	c #ECEEF4",
"(%	c #FCFDFE",
"_%	c #375893",
":%	c #004B9C",
"<%	c #A7CCFF",
"[%	c #4DA2FF",
"}%	c #2D91FF",
"|%	c #0C70DD",
"1%	c #0674ED",
"2%	c #69ABFF",
"3%	c #A6D1FF",
"4%	c #A5D0FF",
"5%	c #B2D6FF",
"6%	c #ECF0FB",
"7%	c #0061C8",
"8%	c #005EC3",
"9%	c #0054B0",
"0%	c #064388",
"a%	c #E7EAF3",
"b%	c #EFF4FF",
"c%	c #C9CFE1",
"d%	c #003D7F",
"e%	c #0070EB",
"f%	c #8BBFFF",
"g%	c #48A0FF",
"h%	c #268EFF",
"i%	c #0667D0",
"j%	c #4B9AFD",
"k%	c #A3CFFF",
"l%	c #A4CFFF",
"m%	c #4B79D1",
"n%	c #003B7A",
"o%	c #566B9A",
"p%	c #DEE2ED",
"q%	c #C8CFDF",
"r%	c #30518C",
"s%	c #004084",
"t%	c #4B7BD6",
"u%	c #6DB3FF",
"v%	c #449DFF",
"w%	c #218BFF",
"x%	c #0260C6",
"y%	c #1E85F9",
"z%	c #9BCAFF",
"A%	c #9FB1E0",
"B%	c #0057B4",
"C%	c #003B7B",
"D%	c #C6CCDD",
"E%	c #A0AAC4",
"F%	c #0052AB",
"G%	c #0075F3",
"H%	c #9FB2E5",
"I%	c #DFECFF",
"J%	c #6AB1FF",
"K%	c #3F9BFF",
"L%	c #1A85FA",
"M%	c #0E7BF4",
"N%	c #84B9FF",
"O%	c #CAE2FF",
"P%	c #D9DFF4",
"Q%	c #003C7B",
"R%	c #7C8BAE",
"S%	c #F4F6FA",
"T%	c #476195",
"U%	c #00438C",
"V%	c #0072EF",
"W%	c #D9E0F6",
"X%	c #BEDAFF",
"Y%	c #64AEFF",
"Z%	c #1278E8",
"`%	c #0373EE",
" &	c #5C9FFF",
".&	c #A1CEFF",
"+&	c #6186D8",
"@&	c #184889",
"#&	c #E8EBF3",
"$&	c #CBD1E1",
"%&	c #0075F5",
"&&	c #618CE7",
"*&	c #5AA9FF",
"=&	c #2E92FF",
"-&	c #0A68CE",
";&	c #147FFA",
">&	c #95C6FF",
",&	c #ABD4FF",
"'&	c #DDECFF",
")&	c #C9D3F0",
"!&	c #0071EB",
"~&	c #B2BACF",
"{&	c #8592B4",
"]&	c #0076F4",
"^&	c #007AFE",
"/&	c #C9D4F5",
"(&	c #DBEBFF",
"_&	c #81BDFF",
":&	c #4CA1FF",
"<&	c #258BFA",
"[&	c #005EC4",
"}&	c #0375F2",
"|&	c #6CA9FF",
"1&	c #9FCDFF",
"2&	c #AAD3FF",
"3&	c #6F91DF",
"4&	c #0070EA",
"5&	c #004B9D",
"6&	c #5E729F",
"7&	c #F9FAFD",
"8&	c #EBEEF5",
"9&	c #295192",
"0&	c #7096ED",
"a&	c #ABD2FF",
"b&	c #6CB2FF",
"c&	c #3A98FF",
"d&	c #1B77DC",
"e&	c #0068D8",
"f&	c #2481FB",
"g&	c #93C6FF",
"h&	c #B0D7FF",
"i&	c #E4E9F9",
"j&	c #216FDF",
"k&	c #0077F7",
"l&	c #0159B8",
"m&	c #D9DEEB",
"n&	c #C3D0F8",
"o&	c #327DED",
"p&	c #DEE9FD",
"q&	c #B9C6ED",
"r&	c #2176EC",
"s&	c #E4EAFB",
"t&	c #D3E7FF",
"u&	c #88C1FF",
"v&	c #50A3FF",
"w&	c #3191FC",
"x&	c #045FC2",
"y&	c #62A1FD",
"z&	c #9BCBFF",
"A&	c #B8DBFF",
"B&	c #C0CDF2",
"C&	c #9BB3F4",
"D&	c #95C3FF",
"E&	c #5DA3F9",
"F&	c #5296F4",
"G&	c #468CF1",
"H&	c #4288EF",
"I&	c #4789EF",
"J&	c #5490F1",
"K&	c #6EA2F4",
"L&	c #8CB9F9",
"M&	c #B7D8FF",
"N&	c #6A92E9",
"O&	c #C0CEF4",
"P&	c #EBF4FF",
"Q&	c #9ACAFF",
"R&	c #62ADFF",
"S&	c #3997FF",
"T&	c #1F76D9",
"U&	c #0876F3",
"V&	c #82B9FE",
"W&	c #9ECDFF",
"X&	c #B0D6FF",
"Y&	c #C4E0FF",
"Z&	c #A8BBEE",
"`&	c #1175F0",
" *	c #EBF0FD",
".*	c #F0F7FF",
"+*	c #B3D6FF",
"@*	c #B6D8FF",
"#*	c #F7F9FE",
"$*	c #97AEE9",
"%*	c #A7D0FF",
"&*	c #6EB3FF",
"**	c #3E9AFF",
"=*	c #2E8BF3",
"-*	c #3683F2",
";*	c #8EC3FE",
">*	c #B5D9FF",
",*	c #CEE5FF",
"'*	c #A8BBF0",
")*	c #0073EE",
"!*	c #4381EF",
"~*	c #B4C4F3",
"{*	c #E9EFFD",
"]*	c #E8F3FF",
"^*	c #E9EEFB",
"/*	c #B4C2EB",
"(*	c #4379DC",
"_*	c #A7BAEC",
":*	c #3292FD",
"<*	c #0E64C5",
"[*	c #4D90F1",
"}*	c #8FC5FF",
"|*	c #A2CFFF",
"1*	c #C0CEF5",
"2*	c #2177EE",
"3*	c #5C8BE9",
"4*	c #9AB0EC",
"5*	c #AFC1EF",
"6*	c #C4CFF0",
"7*	c #C4CFEF",
"8*	c #AFC0ED",
"9*	c #9AAEE5",
"0*	c #5C86DC",
"a*	c #006ADB",
"b*	c #216DD9",
"c*	c #C0CDF0",
"d*	c #3F9AFF",
"e*	c #2F93FF",
"f*	c #176ECF",
"g*	c #0068DA",
"h*	c #5596F0",
"i*	c #8CC4FF",
"j*	c #CDE5FF",
"k*	c #7097EE",
"l*	c #6F8FDA",
"m*	c #E4E9F8",
"n*	c #E3EEFF",
"o*	c #8DC2FF",
"p*	c #3796FF",
"q*	c #2A90FF",
"r*	c #1973D7",
"s*	c #006DE4",
"t*	c #5193EC",
"u*	c #85C0FF",
"v*	c #97C9FF",
"w*	c #C9D5F6",
"x*	c #628EEC",
"y*	c #006EE3",
"z*	c #006CDF",
"A*	c #6185D2",
"B*	c #C9D2EE",
"C*	c #BBD8FF",
"D*	c #4AA0FF",
"E*	c #238DFF",
"F*	c #1571D7",
"G*	c #4388E5",
"H*	c #78B8FE",
"I*	c #9DCCFF",
"J*	c #D9E1F9",
"K*	c #A0B5ED",
"L*	c #4D82E5",
"M*	c #0061C9",
"N*	c #4C79CF",
"O*	c #9FB0DE",
"P*	c #D9DFF2",
"Q*	c #F6F9FF",
"R*	c #C8DEFF",
"S*	c #76B4FF",
"T*	c #4EA2FF",
"U*	c #3192FF",
"V*	c #1C89FF",
"W*	c #1B88FC",
"X*	c #0D6AD0",
"Y*	c #2774D9",
"Z*	c #63A7F7",
"`*	c #78B9FF",
" =	c #86C0FF",
".=	c #CDE4FF",
"+=	c #EDF1FC",
"@=	c #D8E0F7",
"#=	c #C7D1EF",
"$=	c #C2CCED",
"%=	c #C1CBED",
"&=	c #C7D0EC",
"*=	c #D8DFF4",
"==	c #D8E7FF",
"-=	c #AACCFF",
";=	c #5FA9FF",
">=	c #429CFF",
",=	c #2D90FF",
"'=	c #1886FF",
")=	c #1283FF",
"!=	c #127DF2",
"~=	c #0461C4",
"{=	c #0266D3",
"]=	c #3F88E2",
"^=	c #5FAAFC",
"/=	c #6AB2FF",
"(=	c #7DBBFF",
"_=	c #89C2FF",
":=	c #8CC3FF",
"<=	c #B1D3FF",
"[=	c #BFDAFF",
"}=	c #C3DBFF",
"|=	c #C0D9FF",
"1=	c #B8D4FF",
"2=	c #A1C7FF",
"3=	c #7DB5FF",
"4=	c #3092FF",
"5=	c #2089FF",
"6=	c #1082FF",
"7=	c #097FFF",
"8=	c #0B7EFB",
"9=	c #066BD7",
"0=	c #0D65CB",
"a=	c #3684E1",
"b=	c #4B9EFB",
"c=	c #52A5FF",
"d=	c #57A7FF",
"e=	c #5BAAFF",
"f=	c #5BA9FF",
"g=	c #59A8FF",
"h=	c #55A6FF",
"i=	c #4FA3FF",
"j=	c #3495FF",
"k=	c #298FFF",
"l=	c #1D88FF",
"m=	c #057DFF",
"n=	c #0379F9",
"o=	c #036BDB",
"p=	c #005DC1",
"q=	c #0160C6",
"r=	c #1C70CF",
"s=	c #2A84E8",
"t=	c #3091FB",
"u=	c #3194FF",
"v=	c #2C91FF",
"w=	c #288EFF",
"x=	c #228BFF",
"y=	c #1B88FF",
"z=	c #1484FF",
"A=	c #0C80FF",
"B=	c #0562C6",
"C=	c #0B69CE",
"D=	c #0C6FD9",
"E=	c #0C71DF",
"F=	c #0971E1",
"G=	c #0670E1",
"H=	c #046EDE",
"I=	c #0269D8",
"J=	c #0163CD",
"                                        . + @ # $ % & *                                         ",
"                                = - ; > , ' ) ! ~ { ] ^ / ( _ :                                 ",
"                            < [ } | 1 2 3 4 5 } 6 7 8 9 0 0 a b c d                             ",
"                        e f g h i j k l m 5 n o p q r 8 5 s 3 t u v w x                         ",
"                    y z A B C D E F 1 G m H g H A I J K K I G 2 L h M N O P                     ",
"                  Q R S T U C D B V W X Y Z `  ...+.@.#.B $.1 1 %.&.X C *.=.-.                  ",
"                ;.>.L ,.W B U C '.).!.~.{.].^./.(._.:.<.[.}.|.T E B D C '.M 1.2.                ",
"              3.4.5.6.7.%.E T 8.9.0.a.b.c.d.e.f.g.h.i.j.k.l.m.n.o.T C U B V $.p.q.              ",
"            r.s.t.l u.v.&.w.x.y.z.A.B.C.d.D.E.F.G.H.I.e.J.l.K.L.M.N.O.D V P.5.l Q.R.            ",
"          S.T.G U.s V.i W.X.Y.L.Z.`. +.+++@+#+$+%+&+*+=+i.-+;+>+,+'+)+!+'.7.l V.~+{+]+          ",
"        ^+/+H 4 ~+(+&._+:+;+<+[+:+}+/.|+1+2+3+4+5+6+7+8+9+e.:+b.0+a+a+K.b+B c+d+} e+f+g+        ",
"        h+i+j+k+8 h l+{.k.:+m+n+o+p+q+r+s+t+u+v+w+x+y+z+8+=+^.A+B+C+>+a.D+E+&.J F+G+H+I+        ",
"      J+! m ~+6 S K+e.L+M+i.N+O+P+Q+R+S+T+U+V+W+W+V+U+X+Y+q+Z+`+ @.@;+b.+@@@#@k $@%@&@*@+@      ",
"      =@U.-@k+U.;@>@.+,@'@)@!@~@{@]@^@/@(@_@:@:@:@:@_@(@<@V+[@}@|@1@2@c.c.k.3@4@5@6@7@8@9@      ",
"    0@a@b@c@0 d@e@f@<.g.g@h@i@j@k@l@m@:@:@:@:@:@:@:@:@:@:@n@1@o@p@q@r@s@t@d.M+u@v@w@x@y@z@C.    ",
"    A@B@2 3 S C@j.}+D@E@F@G@H@I@J@  C K@:@:@:@:@:@:@:@:@:@L@  :+M@N@O@P@Q@f@R@h.S@T@U@V@W@X@    ",
"  Y@Z@M 7.`@B  #c.d..#+#@###$#%#      &#*#:@:@:@:@:@:@:@=#C     c.-#;#>#,#'#D.h.)#v@!#V@~#{#c.  ",
"  ]#^#&./#h (#_#+@m+:#<#[#}#.+        C |#:@:@:@:@:@:@1#2#        l.3#4#5#6#7#'@8#9#0#a#~#b#c#  ",
"  d#,.'.T '.e#Z.f#J.g#h#i#j#            k#l#:@:@:@:@:@m#C           n#o#p#q#.#'@g.r#s#t#~#u#%#  ",
"  v#D C C C w#x#y#}+z#A#B#C#            C D#E#F#G#H#I#J#            K#L#M#z#N#/.O#P#v@Q#~#R#S#  ",
"T#U#B B X V#K.z.a.W#X#Y#Z#                U `#C   C  $C               .$+$@$#$7#O#j#$$%$~#&$*$=$",
"-$;$L $.,.>$f#L.b.,$'$)$'@                    C C C                   !$~${$]$f.O#N#^$/$($_$:$<$",
"[$;$u.u.7.}$D+`.c#|$1$2$e.                  3$4$5$6$7$                8$9$0$a$7#'@++b$c$d$e$f${.",
"g$h$d+(+B@i$@@=$].j$k$l$m$                `+n$:@:@:@o$C               p$q${$r$f.'@++ .s$t$u$v$M+",
"w$x$6 y$| z$A$M+/.B$C$D$E$F$F$F$F$F$F$G$C H$:@:@:@:@I$C C J$F$F$F$F$F$D$K$L$M$h.'@++ .N$O$P$Q$A$",
"R$S$T$U$V$W$'#^.++*+X$5+Y$:@:@:@:@:@:@Z$C  $`$:@:@:@ %C C .%:@:@:@:@:@y++%e.<.@%/.+%b$v #%$%%%A$",
"&%*%=%-%;%>%.#7#N#,%'%)%<@!%:@:@:@:@:@~%C C {%]%S+^%/%  (%_%:@:@:@:@!%:%A$J.}+i.:.I.>%<%[%}%|%C#",
"1%2%3%4%5%6%7%h.(.8%@+9%v+u+:@:@:@:@:@0%a%C C '.b%C   C c%:@:@:@:@:@d%'%e%=$t@A$i..#6%f%g%h%i%@@",
"  j%k%l%k%V m%D@/.++8%G.5+n%:@:@:@:@:@:@o%p%C       C q%r%:@:@:@:@:@s%<.<+_#:+%#M+t%v@u%v%w%x%  ",
"  y%z%k%k%>#A%^.D.h..#N#B%C%_@:@:@:@:@:@:@D%C       C E%:@:@:@:@:@_@F%D+C+G%_#=$J.H%I%J%K%L%j#  ",
"  M%N%k%4%O%P%:.e.i.i.@%'#:%Q%:@:@:@:@:@R%'.          S%T%:@:@:@:@U%M+a+0+C+G%V%m+W%X%Y%P$Z%D.  ",
"  `% &.&%@] V +&A$M+}+j.j.i.t+(@:@:@:@@&#&            C $&:@:@:@S++%>+a+a+Z.C+%&&&V &@*&=&-&<$  ",
"    ;&>&4%,&'&)&].d.m+c#=$!&.+t+x+:@:@~&C               D {&:@S+8%]&a+A.^&0+Z.;+/&(&_&:&<&[&    ",
"    }&|&1&2&$@V 3&-+:+4&_#;+`.%#5&_@6&7&                  8&9&'@b.Z.Z.Y.Z.Z.>+0&V a&b&c&d&e&    ",
"      f&g&l%h&j+i&j&e%_#;+`.k&>+;+l&m&n&                o&p&q&m.k&B.B.k&a.y#r&s&t&u&v&w&x&      ",
"      +@y&z&2&A&k B&c#[+G%B.y#Z.>+C&d@D&E&F&G&H&I&J&K&L&M&0 d@N&[+;+b.G%K.m.O&P&Q&R&S&T&.+      ",
"        U&V&W&X&Y&h Z&m.f#C+Y.0+`& *B .*| q@M&+*@*, s.5 | .*#*$*:+!&l.D+4&Z&@$%*&***=*j#        ",
"        e%-*;*.&>*,*&.'*)*y#>+0+C+!*~*{*X j 7.`@]*P&.*i ^*/*(*{.-+@@=$J._*,.a&V@e$:*<*m+        ",
"          4&[*}*|*T$5 &.1*2*>+0+Y.>+`.!&3*4*5*6*7*8*9*0*,@.+a*M+j.d.b*c*X#^ b&d*e*f*g*          ",
"            :+h*i*1&>*j*$.s&k*G%>+C+K.b.D+!&c#J.{.M+f@e&,@@%,@e.@%l*m*n*o*($p*q*r*D.            ",
"              s*t*u*v*] F+c+i w*x*m.b.+@C.=$y*z*A$R@@%D@:.f.I.A*B*@$C*b&D*q*E*F*h.              ",
"                %#G*H*!#I*G+Y&u.i J*K*L*d.d.j.f@e.D./.M*N*O*P*Q*R*S*T*U*V*W*X*D@                ",
"                  <$Y*Z*`* =&@|*X&.=u V +=@=#=$=%=&=*=6%@$==-=;=>=,='=)=!=~=g*                  ",
"                    c#{=]=^=/=y@(=U@_=:=4#<=[=}=|=1=2=3=T*d*4=5=6=7=8=9=j#m+                    ",
"                        }+0=a=b=c=d=*&e=f=g=h=i=&$**j=k=l=6=m=,+n=o=p=.+                        ",
"                            g*q=r=s=t=u=e*v=w=x=y=z=A=m=a+>+:+_.8%e&                            ",
"                                m+D.=+B=C=D=E=F=G=H=I=J=j#j#D.m+                                ",
"                                        c#}+.+e.e..+}+c#                                        "};
