/* XPM */
static char * BloodCP_32x64_xpm[] = {
"32 64 351 2",
"  	c None",
". 	c #252525",
"+ 	c #212121",
"@ 	c #1C1C1C",
"# 	c #1E1E1E",
"$ 	c #090909",
"% 	c #0D0D0D",
"& 	c #0F0F0F",
"* 	c #131313",
"= 	c #222222",
"- 	c #271915",
"; 	c #24140E",
"> 	c #26140E",
", 	c #22120C",
"' 	c #202020",
") 	c #241916",
"! 	c #21140E",
"~ 	c #351E12",
"{ 	c #221612",
"] 	c #242424",
"^ 	c #282828",
"/ 	c #181818",
"( 	c #0F0D0D",
"_ 	c #110E0E",
": 	c #191414",
"< 	c #171818",
"[ 	c #101010",
"} 	c #151515",
"| 	c #171717",
"1 	c #0A0B0B",
"2 	c #581605",
"3 	c #421003",
"4 	c #230202",
"5 	c #6B1A06",
"6 	c #080404",
"7 	c #160A0A",
"8 	c #130909",
"9 	c #120707",
"0 	c #190B0B",
"a 	c #241212",
"b 	c #210F0F",
"c 	c #3A1A16",
"d 	c #391D1A",
"e 	c #1F0E0E",
"f 	c #1C0E07",
"g 	c #1B1B1B",
"h 	c #2B1313",
"i 	c #3D211E",
"j 	c #56321C",
"k 	c #4F3509",
"l 	c #352203",
"m 	c #2A1602",
"n 	c #050505",
"o 	c #262626",
"p 	c #6C6C6C",
"q 	c #686362",
"r 	c #291602",
"s 	c #2B1605",
"t 	c #2A1800",
"u 	c #322F2D",
"v 	c #141414",
"w 	c #292929",
"x 	c #313131",
"y 	c #838383",
"z 	c #999999",
"A 	c #72522A",
"B 	c #6A4521",
"C 	c #726F6F",
"D 	c #919191",
"E 	c #343434",
"F 	c #1A1A1A",
"G 	c #272727",
"H 	c #9D9D9D",
"I 	c #A2A2A2",
"J 	c #926940",
"K 	c #92663D",
"L 	c #939393",
"M 	c #9A9A9A",
"N 	c #797979",
"O 	c #232323",
"P 	c #363636",
"Q 	c #1F1F1F",
"R 	c #505050",
"S 	c #BCBCBC",
"T 	c #AAAAAA",
"U 	c #A37D4D",
"V 	c #936840",
"W 	c #B0B0B0",
"X 	c #1D1D1D",
"Y 	c #111111",
"Z 	c #121212",
"` 	c #161616",
" .	c #C4C4C4",
"..	c #A8A8A8",
"+.	c #9E887B",
"@.	c #9B7C66",
"#.	c #A7A7A7",
"$.	c #C0C0C0",
"%.	c #ACACAC",
"&.	c #2C2C2C",
"*.	c #0C0C0C",
"=.	c #080808",
"-.	c #303030",
";.	c #060606",
">.	c #757575",
",.	c #9B9B9B",
"'.	c #A3A3A3",
").	c #B2B2B2",
"!.	c #B3B3B3",
"~.	c #040404",
"{.	c #000000",
"].	c #020202",
"^.	c #8D8D8D",
"/.	c #AFAFAF",
"(.	c #BEBEBE",
"_.	c #A0A0A0",
":.	c #0E0E0E",
"<.	c #818181",
"[.	c #A4A4A4",
"}.	c #979797",
"|.	c #0A0A0A",
"1.	c #333333",
"2.	c #868686",
"3.	c #828683",
"4.	c #5B5453",
"5.	c #7F7F7F",
"6.	c #9C9C9C",
"7.	c #888888",
"8.	c #332421",
"9.	c #686969",
"0.	c #636363",
"a.	c #6C5E5C",
"b.	c #352D2C",
"c.	c #767676",
"d.	c #989898",
"e.	c #8C8C8C",
"f.	c #959595",
"g.	c #6B6B6B",
"h.	c #0B0B0B",
"i.	c #2B2B2B",
"j.	c #5E443E",
"k.	c #A8847C",
"l.	c #9D8A86",
"m.	c #847471",
"n.	c #341611",
"o.	c #5C5C5C",
"p.	c #848484",
"q.	c #909090",
"r.	c #7D7D7D",
"s.	c #6D6D6D",
"t.	c #515151",
"u.	c #535353",
"v.	c #929292",
"w.	c #A79E9C",
"x.	c #5C544B",
"y.	c #373737",
"z.	c #845C50",
"A.	c #9B6A4E",
"B.	c #4F3408",
"C.	c #54380C",
"D.	c #4A3106",
"E.	c #5A5A5A",
"F.	c #727272",
"G.	c #878787",
"H.	c #494949",
"I.	c #2D2D2D",
"J.	c #A1A1A1",
"K.	c #898989",
"L.	c #635958",
"M.	c #523D3A",
"N.	c #86503B",
"O.	c #956C44",
"P.	c #64471A",
"Q.	c #472F05",
"R.	c #3C2306",
"S.	c #828282",
"T.	c #616161",
"U.	c #191919",
"V.	c #452824",
"W.	c #885C4A",
"X.	c #6B482B",
"Y.	c #56423E",
"Z.	c #411F18",
"`.	c #2D1A16",
" +	c #6A4132",
".+	c #8B5936",
"++	c #6D4823",
"@+	c #311D01",
"#+	c #160E09",
"$+	c #464646",
"%+	c #808080",
"&+	c #52332A",
"*+	c #835239",
"=+	c #895E3D",
"-+	c #5E4217",
";+	c #311611",
">+	c #2C1704",
",+	c #271803",
"'+	c #3B3B3B",
")+	c #8F8F8F",
"!+	c #7C7C7C",
"~+	c #7E7E7E",
"{+	c #2C1A16",
"]+	c #6B4B2A",
"^+	c #8D6039",
"/+	c #5C4217",
"(+	c #53390F",
"_+	c #231008",
":+	c #18100D",
"<+	c #5F5957",
"[+	c #524C4B",
"}+	c #745B50",
"|+	c #82766A",
"1+	c #7B7774",
"2+	c #676767",
"3+	c #371C18",
"4+	c #5C3922",
"5+	c #513416",
"6+	c #44260B",
"7+	c #100600",
"8+	c #1D0800",
"9+	c #452209",
"0+	c #3D1C04",
"a+	c #5C3C1F",
"b+	c #553410",
"c+	c #391902",
"d+	c #2F1201",
"e+	c #1A0700",
"f+	c #030303",
"g+	c #200800",
"h+	c #4B2609",
"i+	c #4B2709",
"j+	c #411F05",
"k+	c #3F1E06",
"l+	c #331504",
"m+	c #251108",
"n+	c #442104",
"o+	c #351705",
"p+	c #3E1D05",
"q+	c #3C1C06",
"r+	c #2F1202",
"s+	c #1E0F09",
"t+	c #220E04",
"u+	c #442007",
"v+	c #482407",
"w+	c #3A1A05",
"x+	c #3B1A02",
"y+	c #311202",
"z+	c #280E00",
"A+	c #20110C",
"B+	c #1E0800",
"C+	c #311302",
"D+	c #220B00",
"E+	c #311401",
"F+	c #3D1D05",
"G+	c #381902",
"H+	c #321302",
"I+	c #241009",
"J+	c #2E0F00",
"K+	c #25120C",
"L+	c #331D10",
"M+	c #381A05",
"N+	c #2D1202",
"O+	c #411F06",
"P+	c #522B0E",
"Q+	c #442106",
"R+	c #27130A",
"S+	c #070707",
"T+	c #44230C",
"U+	c #100400",
"V+	c #583113",
"W+	c #633919",
"X+	c #321A0A",
"Y+	c #332117",
"Z+	c #381803",
"`+	c #321401",
" @	c #724826",
".@	c #764B29",
"+@	c #3F2311",
"@@	c #5F3B1F",
"#@	c #552F11",
"$@	c #5B3314",
"%@	c #6E4322",
"&@	c #271912",
"*@	c #6D4422",
"=@	c #532C0F",
"-@	c #1B0700",
";@	c #3B1B05",
">@	c #673C1C",
",@	c #492D19",
"'@	c #673D1D",
")@	c #2C0F00",
"!@	c #5A3214",
"~@	c #101111",
"{@	c #61391A",
"]@	c #5E3617",
"^@	c #4E290B",
"/@	c #2A0F02",
"(@	c #573011",
"_@	c #210F09",
":@	c #25150D",
"<@	c #744927",
"[@	c #351703",
"}@	c #2E1508",
"|@	c #482810",
"1@	c #7D512E",
"2@	c #724725",
"3@	c #552D10",
"4@	c #080909",
"5@	c #170804",
"6@	c #794E2B",
"7@	c #653A1B",
"8@	c #3F1E05",
"9@	c #4F290C",
"0@	c #130804",
"a@	c #250E04",
"b@	c #6C4120",
"c@	c #5C3416",
"d@	c #2A0F00",
"e@	c #401F06",
"f@	c #47240B",
"g@	c #542E0F",
"h@	c #1C0B04",
"i@	c #120602",
"j@	c #321501",
"k@	c #311504",
"l@	c #1B0902",
"m@	c #240B00",
"n@	c #2A0E00",
"o@	c #351504",
"p@	c #341501",
"q@	c #311707",
"r@	c #160C09",
"s@	c #321A0B",
"t@	c #371805",
"u@	c #462309",
"v@	c #401E03",
"w@	c #280F04",
"x@	c #5E3516",
"y@	c #502A0D",
"z@	c #311503",
"A@	c #311908",
"B@	c #432007",
"C@	c #32190B",
"D@	c #49250A",
"E@	c #421F05",
"F@	c #361703",
"G@	c #3A1A04",
"H@	c #301000",
"I@	c #2D1C13",
"J@	c #21100A",
"                                                                ",
"                                                                ",
"                                                                ",
"                            . + @ @                             ",
"                          # $ % & * =                           ",
"                          - ; > > , >                           ",
"                    ' ' ) ! ; ~ , ! > { ] ^                     ",
"                  ] / @ / / ( _ : < [ } | @ +                   ",
"                          1 2 3 4 5 6                           ",
"                          & 7 7 8 9 0                           ",
"                          a b c d e f                           ",
"                        g h i j k l m n                         ",
"                      o } p q r s t u v w                       ",
"                  x o @ @ y z A B C D E F # o                   ",
"              x G + F + w H I J K L M N O & [ + @               ",
"            P O / Q @ ' R S T U V I W z X v Y Z v Y             ",
"            O / ` ` F / p  ...+.@.#.$.%.&.` *.Y * =.&           ",
"          -.v ;.% / / / >. .W ,.'.).$.!.g / * ~.{.{.=.          ",
"          w ` ].Z F F F ^./.(.W W  . ._.o / / *.].;.=.Y         ",
"          ' [ ~.:.* F F <.[..._.W (.[.}.+ / * ;.;.|.|.*         ",
"        1.2.3.4.Y % & / 5.6.H _...[.[.7.Q / |.].=.*.=./ +       ",
"        8.9.0.a.b.Y v / c.d.e.e.6._.f.g.o ` ~.{.h.* & ` `       ",
"      i.j.k.l.m.n.v Z } o.7.d.p.q.r.s.t.X =.].u.v.w.x.v Z }     ",
"      y.z.A.B.C.D.Z |.Y E.q.6.q.d.F.G.H.} ~.{.I.J.K.L.^ + /     ",
"    -.M.N.O.P.Q.R.Y |.v t.z 6.q.6.S.^.T.U.$ V.W.X.Y.Z.v Q `     ",
"      `. +.+++@+#+=.% Y $+[.q.2.q.q.D %+` *.&+*+=+D.-+;+& *     ",
"      % $ >+,+& Y ].].:.'+6.)+!+K.6.D ~+U.*.{+]+^+/+(+_+}       ",
"                Y ].].v :+<+[+}+|+1+<.2+v * ].3+4+5+6+7+g       ",
"                & {.{.:.8+9+0+a+b+c+d+e+v Y ~.v g v *.f+        ",
"              ' ;.].{.|.g+h+i+j+0+k+l+m+` :.].=.                ",
"              / ;.{.{.{.8+n+n+o+p+q+r+s+` |.~.;.                ",
"              F ;.].{.{.t+u+v+w+x+y+z+A+v :.& ].Y               ",
"              @ =.{.{.{.B+C+8+D+E+F+G+H+v [ $ {.[               ",
"              v % ~.].].I+z+D+e+{.z+J+H+K+[ $ ~.*               ",
"            ] / / |.|.=.L+M+N+{.e+O+P+Q+R+` * ~.                ",
"            ^ ' S+*.v v T+j+N+{.U+O+V+W+X+Z % {.                ",
"            ^ X ~.} / Y+h+Z+e+{.{.`+ @.@+@[ *.{.v               ",
"            ^ h.* / / @@#@l+U+{.{.8+$@%@+@Z $ {.*.              ",
"            ] v @ / &@*@=@r+-@{.{.{.;@>@#@Z {.{.Y               ",
"            O F / ` ,@'@#@)@{.{.{.{.r+W+!@[ {.{.*.              ",
"            @ @ / ~@{@]@^@r+{.{.{.{./@(@^@_@{.{.].              ",
"            | # ` :@%@<@h+[@{.{.{.~.e+Q+h+}@$ {.].              ",
"          ^ Z # S+|@1@2@^@R+{.{.{.~.e+u+3@x+4@{.{.[             ",
"          ^ Z * 5@$@6@7@8@:+{.{.{.;.e+;@9@x+0@].~.~.            ",
"          ] v ~.a@h+b@c@x+4@{.{.{.=.{.d@e@f@e+].].|.            ",
"          ' =.{.B+g@W+^@G+{.{.{.].~.~.e+p+f@h@;.].].            ",
"          ' $ {.i@F+(@n+j@{.{.{.{.{.i@D+k@y+)@* ;.{.v           ",
"          ' ~.{.l@e@v+n+r+{.{.{.{.{.{.d@)@l+)@*.;.;.*           ",
"          / ~.{.g+h+n+w+z+{.{.{.{.{.{.m@n@o@d@` Z {.Z           ",
"          g ~.{.g+P+v+n+j@{.{.{.{.{.{.d@p@v+r+` Y ].=.          ",
"          Y ].{.j@3@v+n+q@{.{.{.{.{.{.r+0+k+N+r@} =.;.          ",
"        h.{.{.{.p+v+9@v+s@{.{.{.{.{.{.)@t@j+r+e+% |.~.@         ",
"      + % ~.{.{.u@n+n+v@B+{.{.{.{.{.{.w@j+n+k@U+{.=.~.v         ",
"          =.{.~.c+x@y@z@~.{.{.{.{.{.{.A@n+n+y+e+{.{.& [         ",
"                B@W+V+G+      v =.~.=.C@D@v+E@e+].~.$ @         ",
"                P+(@n+r+              )@F@v+r+B+                ",
"                3@g@x+z+              z+J+0+)@)@                ",
"                9+i+G@F@                H@q+0+z+                ",
"                @ ].4@I@                J@h@e+l@                ",
"                + =.{.:.                v =.{.;./               ",
"                | *.{.U.                g ;.~.;.[               ",
"                  =.=.                    ~.Y =.                ",
"                                                                ",
"                                                                "};
